<svg id="Capa_1" data-name="Capa 1" xmlns="http://www.w3.org/2000/svg" viewBox="0 0 3807.32 3366.13"><defs><style>.cls-1,.cls-7,.cls-8,.cls-9{fill:#fff;}.cls-1,.cls-5,.cls-7{stroke:#fff;}.cls-1,.cls-4,.cls-5,.cls-7{stroke-miterlimit:10;}.cls-1,.cls-5{stroke-width:100px;}.cls-1,.cls-2,.cls-3,.cls-4,.cls-5,.cls-6,.cls-7,.cls-8{fill-rule:evenodd;}.cls-2{fill:#020202;}.cls-3,.cls-4{fill:#f39323;}.cls-4{stroke:#f39323;}.cls-4,.cls-7{stroke-width:0.57px;}.cls-5{fill:none;}.cls-6{fill:#050100;}</style></defs><path class="cls-1" d="M2034.55,2505.67l29.5,2.48v110.54c-28,4.66-81.67,5-96-11.48-12.42-14.6-9-76.39-6.21-100.3l26.08.31c7.15,61.48-21.73,95.64,47.2,88.5Zm0,0c-9.32,2.48-2.48-2.17-5.59,7.76l-.93,32.3c-.31,13.66,0,27,0,40.67-50.61,16.15-18.32-25.15-32-86-12.73,0-13.35,5-22.67-2.79-14.28-11.8,11.8-5.59-8.69-12.42L1954.44,2511c-1.55,4.66-3.11,82.28,4.35,96,16.76,30.11,106.5,20.8,109.29,19.56,5.9-14.29,2.49-50.61,2.18-70.8,0-29.81,8.69-40-8.39-59.3-9.62,2.48-20.49,1.24-25.46.93-3.1,4.65-5.59-7.45-1.86,8.38Z"/><path class="cls-1" d="M1838.31,2610.62l-1.86-7.14-12.73,8.69c-15.84,8.39-29.5,8.08-46.89,8.08-24.84-.31-50,.31-75.14-.62l.31-25.78c75.45-3.1,111.47,12.74,103.4-31.67-31.36-14.9-73,4-97.19-15.83-12.11-9.63-14.91-24.84-13-42.54,2.48-23.6,12.42-25.46,21.73-36.64-9,0-16.45-.62-24.22,7.76-.31.31-.62,1.24-.93,1.55-5.9,7.46.93-6.52-2.17,4.66,7.45,12.11-5.59,27-7.45,22.67-.31,13.35,2.48,12.11,5.27,17.08,9.63,19.25-4.34,17.38,20.19,32.6a6.49,6.49,0,0,1,1.86,1.24l4,2.48c4,2.49-.62.32,4.34,2.49,19.88,9.31,52.17-6.83,81.67,9.94l-5.9,14.9c-24.84,0-73-4-94.4,3.41-10.86,17.39-4.34,29.81,2.8,42.23,11.49-.31,25.46-2.48,33.22-2.79a318.15,318.15,0,0,1,38.5-.62c28.26.93,46.89-.93,64.59-16.15Z"/><path class="cls-1" d="M1715.35,2469c40.37-5.59,75.76-5,117.68-4.35l.31,26.71c-34.15-.93-81-5.59-103.71,9.62-3.41,46.27,26.09,20.5,77.94,29.81,17.7,3.42,27,7.76,32,23.29,5.9,18.63-1.86,37.26-3.1,49.37l1.86,7.14c12.11-4,9.94-1.86,12.42-15.52,5-24.84-3.1-38.2-5-44.72-8.38-27.94-4.34-12.42,5.59-17.38,11.49,7.14,5,13,13,20.49,13.35-16.46,1.56-8.7-2.17-30.74-1.24-5.9-.31-24.53-.31-32-6.21-14.91-2.49,11.8-9.94-14-2.17-6.52-1.55-12.73.62-16.45-8.07-2.49-5.9-1.87-10.86-5-5.59,3.41-3.11,3.41-12.74,5.28-33.22,7.14-80.11-15.84-110.22-5.59-3.42,7.45-1.56,3.1-3.42,14Z"/><path class="cls-1" d="M2236.69,2645.09c11.18-3.42,111.78-60.24,118-56.2L2319.59,2537c-66.44-41.92-47.5,18.63-40.05,74.21l-24.53,8.7,1.86-94.09-41.92-3.72c-84.14,206.79-82.9,87.25,21.74,123Z"/><path class="cls-1" d="M2061.87,2147l50.93,103.08c-11.49.32-23,0-34.78.32-35.4.62-28.57,1.55-32.29-5.9-13-6.21-10.56-10.25-10.56,15.83l62.41-2.79c2.18,9.31,5,18,13,22.66a11.38,11.38,0,0,0,1.25-3.41,21.9,21.9,0,0,1,1.24-3.11c5.28-18.94-27-1.24-18.63-10.24,9.31-9.63,28.25-4.35,36-2.8l38.5-2.79c30.74,3.41,24.22.62,23-8.7l-61.79.31,80.42-200.89c-15.22,26.7-36.33,38.5-78.56,65.82l-41.92,20.81Z"/><path class="cls-1" d="M2838.76,1772c-117.68,37-253.68,90.66-364.53,146.55l-124.52,64.28-4.65,3.1c-23.29,20.19-38.82,162.4-26.71,170.16,3.11,5.28,4.35,4.35-.62,4.35.31-.31,3.73-6.83,4.35-7.45l11.8-8.7c-2.18-6.52-5.9-13-5.9-19.87.31-35.4,14.59,2.48,12.42-31.36-.62-12.11-3.73-13.35-6.52-26.7,32.6-21.43-.31-41.3,16.76,32.29.63-2.18,3.11-14,3.42-15.22l6.21-25.46c7.76-18.63,14.9-12.42,27.95-16.77,9.93-3.1,13.66-3.72,23.9-1.86l1.25,8.39c25.46-5.59,36.64-11.18,71.41-12.43,27-.93,56.2-2.79,83.53-2.17l-8.07,43.16c-55.9,7.45-126.38-17.39-136,41.61l126.69.62-5.28,41.61c-2.17,17.7,47.82,17.08,65.83,18.94,2.79-10.56,2.79-68.62,10.25-73.28,4.34,5.28,11.48-.31.31,42.23l8.69,29.5c-10.56,27.94-38.81,25.15-38.81,52.78l17.7,27.64c18.32-1.24,14-3.42,15.83-5.9l-56.82-1.87c-.62-4.65,32.91-223.25,38.81-214.24l102.16-3.42c36.95.62,68.31,5.28,79.18,32.91,10.87,27-15.22,147.49-22.67,184.44l-55.27.63c-.62-16.15,6.21-28.88,2.17-41.61v-6.21c-7.14,1.55-.62-.62-2.79,6.83-4.66,17.39,3.1,9.93-10.25,17.39-.31,11.18-4.34,10.24-2.48,24.22.93,7.76,1.24,6.83,2.48,9.62,6.83,2.8,108.06,1.24,42.23,0-24.84-.62-21.73.31-26.08,6.52,9.63,7.77,31,1.24,41.92,3.11,17.08,2.79,3.72-2.49,19.56,9.93,0-16.76-.93-18.63,3.42-30.74l2.79-7.76c.31-.62,3.42-9.62,3.73-10.25,2.17,76.39-1.56,3.73,22.66-3.1,5-10.25.93-4.66,4.66-13.66l19.56,2.48c2.49-5.28-5.9-9.93-4.66-18.94-15.21-48.44,0-104.64,28.26-132.59,41.92-41.29,78.87-28.56,141.28-33.53l14-77.32h56.52l-30.43,144.7c21.11-18.94,57.75-48.13,76.07-64.59,60.55-53.71,184.44-184.75,153.7-265.79-26.39-70.17-177.61-56.2-235-45.33-69.25,14.59-129.17,27.32-195.31,48.13Z"/><path class="cls-1" d="M1540.54,549.49c39.43,7.76,98.43,35.7,129.17,53.09,23.28,13,37.26,19.87,46,45,4.66,37.88,20.8,97.18,58.38,132.27,39.12,39.12,285.66,96,270.76-164.57-4.66-85.39,3.72-55.58-37-121.09-12.42-19.88-26.09-43.79-41.92-65.21-22.36-35.71-55.27-78.87-91.29-95.95-95.64-42.85-205.87-14-308.33-6.21-38.82,9-64.9,11.18-99.36,16.77-32.61,5.59-65.52,12.11-101.23,16.77-32.6,4-65.21,14.28-97.19,17.39-46.57,4.65-144.38,25.77-200.89,33.53-72,9.94-174.51-5-228.23,33.85,33.54,7.14,148.43-1.25,195.93,3.72,97.19,10.87,270.14,31.05,354,56.2,15.83,4.66,148.73,42.23,151.22,44.41Z"/><path class="cls-1" d="M1104,905c-27.94,19.26-53.71,37.58-81.35,57.45-38.19,27.63-77,46.88-91.29,86-42.54,118.61,101.54,192.51,177.3,132.58,19.25-15.21,40.68-53.09,44.4-74.21,14.91-84.45-28.87-111.47,18.63-154.32,12.42-11.49,46.58-34.77,62.42-41,112.09-45.34,157.42-40.37,202.45-36.95,36,2.48,87.25,17.38,120.16,34.15,22.67,11.49,41-32.6,64-38.5-41.61-43.78-218-64-319.83-45-69.24,12.11-117.06,30.43-196.86,79.8Z"/><path class="cls-1" d="M2265.26,1052.5c-14,8.08-37.89,30.74-54,42.54-32.92,24.84-104.95,62.11-149.36,64.28-150-10.87-177.61-41.92-190-49.37-14-8.7-7.45.62-53.71,46.88,71.72,42.23,223.25,86,293.74,58.69,55.89-21.74,99.36-41.92,153.39-72.35,28.56-16.45,31-17.7,63-7.45,30.74,10.25,64,7.76,87.87-10.56,5-3.72,6.52-4.34,10.87-8.38a111,111,0,0,0,17.7-21.74c10.55-16.76,16.45-37.57,16.45-61.79-.31-129.17-192.51-170.46-195.92,19.25Z"/><path class="cls-1" d="M2064.05,2551.63c-4-15.84-31.36-29.5-28.26-34.16,5,0-6.21,17.39,3.42,14.9,17.07,19.26,18.32-3.41,18.63,26.4,0,20.49-10.25,28.56-16.46,42.85,71.73-23.29-120.79,39.12,5.59,5,0-13.67-.31-42.54-.31-56.21l-2.17-34.46c3.1-9.94,10.24,38.19,19.56,35.71ZM1831.48,2596c-17.7,15.21-29.5,19.25-57.76,18-56.82-1.87-40.36-9.94-48.12-9.63-7.15-12.42-11.18,17.39,0,0,82.9-8.07,105.88-11.18,105.88-8.38ZM1487.13,1157.77c-4.66,11.17-12.42,30.74-16.15,41.91-11.8,30.43-18,55.58-27,86.64-23.6,84.14-32,328.82-14,421.35,18.63,96.57,62.41,74.83,83.83,125.76,13.66,32.29,40.37,209.59,68,304,13.35,44.71,84.77-44.09,119.86-30.43-12.11-69.24-34.47-204.62-31-266.41,10.55-11.49,12.11-14,31.67-14.6l129.79.31c85.08,0,280.39-4.34,350.87-.62l6.52,138.49,51.24-9.63c-4,48.44-16.77,101.23-25.16,149.05-5,28.56-26.08,125.75-23.59,145.62-1.87,5.9,5,9-23,8.7-11.49-.62-106.19-.31-129.79-.31,0-26.09-1.24-2.8,6.52-13,39.43-164.26-52.17-37.58-160.84,14.28-19.88,12.11-110.23,70.17-127,69.55-6.83-28.87-43.78-177.92-50.61-190.34-136.32-38.81-114,55.27-116.13,28.57.93,13.66,9,27.32,8.38,38.19l40.37.62-6.83,44.71-9.94.94c5.28,9.31,4,15.21,9.94,27.63,15.52,32.91,18.32,89.43,17.69,112.71-62.1,89.12-359.56,305.23-389.06,366.4,43.16-1.55,113-6.83,151.22-3.72-.31,34.77-7.14,56.51-10.87,120.16,54-23,91.29-45.33,114.27-54.65l3.72,111.47c77.94-19.87,104.33-24.22,156.81-38.81l5.59,108.06,59.92-90.67c18.63-31,309.58-148.42,367.33-180.09,255.86-161.47,333.48-169.85,94.71-99.68-28.57,0-14.29,2.49-18-9.31l1.55-113.65c28.57,11.18,114.89,6.21,135.69.93,67.38,36-79.49,148.74,78.87,55,147.49-85.39,284.11-187.54,421.35-288.46,12.74-9.62,45.34-32,56.21-39.74C2745,2120,2744.68,2283,2744.68,2113.5c0-57.44-86.95-110.85-110.23-36-9.63,30.12-10.56,138.18-38.2,137.25-1.86,2.48,27.64,14.59,9.32,16.14l-22.05,19.88c1.56-84.15,14.29-78.56,16.46-96.88l-186.3,12.42c-1.25,59.3,35.08,31.36,123.58,39.43l-8.39,44.72c-67.38,0-152.76,13.66-172.64-48.13-15.21-47.51,2.8-112.1,49.68-148.42,6.21-4.66,4.35.93,8.7-4.66l18.63-7.14c-177-35.09-118.3,46.57-122.65,137.55-.93,7.14-2.49,15.84-3.42,21.42-9,44.1-1.24,47.51-21.73,49.38h-44.71c-1.87-18,39.74-200.59,45.95-232-5.9,3.1-10.56,4.66-25.15,10.87-3.42-68.32-1.24-143.15.31-212.39.93-37.26,7.45-64-19.56-86.32-25.77-21.43-52.48-14.91-92.84-14.59-110.23.62-267-3.42-372.61-.32-77,2.49-71.73-24.21-75.45-96.25-3.42-61.48-6.52-171.71,4.34-230.09,4.35-24.53,10.56-78.87,18.94-95,3.11-28,22.67-75.45,33.54-101.54,5.59-14.28,11.18-36.64,22-43.16,18.63-11.18,31.67,9.32,47.19,9,26.4-5.9,50.93-24.22,48.13-46-.93-2.17-31.67-19.56-35.71-23-1.24-1.56-2.79-2.18-5-4-14-11.8-11.79-22-8.07-48.13a579,579,0,0,0,6.52-72.35c1.86-88.18-107.12-103.09-176.37-103.09-19.25,0-41.6,1.25-58.68,2.8-61.48,5.28-46.89,137.86-111.16,292.81Z"/><path class="cls-1" d="M2945.26,2179c9-7.45,25.15-18.32,35.4-22.67l9.94-75.14c-124.83-43.47-159.91,103.09-79.18,123.89,1.86.62,27.63-20.8,33.84-26.08Z"/><path class="cls-1" d="M1892.65,825.21c98.43,0,178.23-80.11,178.23-178.54,0-98.12-79.8-178.23-178.23-178.23-98.12,0-178.23,80.11-178.23,178.23,0,98.43,80.11,178.54,178.23,178.54Z"/><polygon class="cls-1" points="1613.81 2117.23 1697.96 2103.26 1704.48 2142.38 1620.34 2156.66 1613.81 2117.23"/><path class="cls-1" d="M1934.88,2127.48c1.86-13.36,52.16-101.54,60.24-108.68l23,108.36Zm-139.42,117.68c33.53,6.21,59.62,4.34,68,5.28,5.59-10.56,36.33-62.11,41.3-70.18,38.81-2.17,99,.93,123.89-.93l16.77,72c9,2.17,51.54-.62,67.38-1.25l-28.57-121.4-41-174.51h-68.93c-23.91,29.81-164.57,279.46-178.85,290.95Z"/><path class="cls-1" d="M993.42,2506.29,954.3,2506c-7.14,10.87-34.47,44.4-45.33,50l-.31-92.53-31,2.18v154.94l31-.31,1.24-50.93c11.49,10.56,35.09,38.2,43.16,51.55l40.67-.31c-8.69-21.74-35.39-36.64-48.12-58.69,12.42-20.49,38.5-36.64,47.81-55.58Z"/><path class="cls-1" d="M650.32,2497.91c30.11-10.56,68.31-3.73,101.84-5.28l.31-27c-22.35-3.42-100.29-3.73-118,3.41-28.57,11.8-33.85,64.9-5.59,81.66,26.7,15.84,100.92-9.62,95,26.71-4.66,26.39-79.8,14-106.82,15.83l.31,27c27.64,1.55,59.62,1.24,87.56.62,27.33-.62,48.44-6.52,53.72-34.16,21.74-108.67-128.24-13-108.36-88.8Z"/><path class="cls-1" d="M3004.88,2528.65l20.49,1.24,2.49,10.87.93,13,27.94-.31c1.25-23.6,4.35-41.61-18.63-47.2-13.35-3.1-46.57-1.24-62.72-1.55l-.93,116.13,30.12-.62v-64.59Z"/><polygon class="cls-1" points="1133.77 2464.68 1107.38 2464.37 1107.07 2490.46 1134.39 2492.01 1133.77 2464.68"/><path class="cls-1" d="M500,2080c1.24-17.39,3.73-26.4,6.21-41.3,6.83-37.88-10.56-31.05,82-31.05,81.36-.31,41.61,57.75,31.68,64.27-18,12.11-91.6,9.32-119.86,8.08Zm127.62,51.23L637,2125c4-2.17,7.15-2.79,11.18-4.66,56.2-27.63,72-115.5,37.26-147.8-31-28.56-183.82-20.49-230.08-18.32l-50.61,296.85,63.65.31,20.8-115.82,72-.62c13.35,27.63,36,100.91,46.58,116.13l68.93.31c-4-23.29-36.33-91.6-49.06-120.17Z"/><path class="cls-1" d="M2692.82,2426.49l621.32.62-.31-67.07H2845.59c-23,0-55.58-4.65-72.66,6.52-11.49,7.46-75.45,50.62-80.11,59.93Z"/><path class="cls-1" d="M1101.17,2203.55c-61.17.62-103.4,3.1-84.77-71.73,12.73-51.54,46.27-54.34,106.82-50.61Zm-86.94,46.26c25.46,4.35,52.16-.62,77.62,2.8-.62,22-12.11,50-9.62,71.42,73.9,2.17,53.41,16.76,77-114l4.66-25.77c9-32.61,18-105,25.46-151.53-102.77,0-200-19.25-233.5,93.46-16.45,55.89-4.34,113,58.38,123.58Z"/><path class="cls-1" d="M803.39,2083.69c36.33-19.25,70.18,3.42,69.87,41-.62,35.09-18.94,66.76-42.54,77.63-76.07,34.77-100.91-79.8-27.33-118.62Zm-45.64,166.75c27.33,7.14,58.69,6.21,84.15-1.25,37.26-10.55,72-44.09,84.46-81,18.63-54.65,9-121.1-53.41-134.76-177.61-39.12-227.29,188.48-115.2,217Z"/><path class="cls-1" d="M3073.19,2196.1c21.43,67.38,98.43,58.06,176.06,59.61l9.93-49.37c-96.87-5.9-119.85,10.25-125.44-43.47,36.64-3.72,115.2,4.66,131.65,1.56l7.77-46-128.55-.93c10.24-56.2,81-34.47,136-39.44l5.9-27.94,1.55-17.39c-59-.31-126.69-7.45-166.43,24.53-37,29.81-54.34,75.76-48.44,138.8Z"/><path class="cls-1" d="M1240,2243.91c14.28,6.21,30.74,7.46,47.81,7.77,123.58.31,111.48,8.69,117.37-29.19l17.7-95.95,15.22-93.77c-70.49-.31-56.51-9-65.52,41.3-24.53,140.35-8.69,130.1-65.52,128.55-62.41-1.56-27.32-30.12-10.86-168.3l-56.83-.62c-6.52,15.22-14.28,72-18,92.84-6.84,36.33-25.78,97.19,18.63,117.37Z"/><polygon class="cls-1" points="1107.69 2620.87 1133.77 2620.56 1134.08 2507.22 1106.45 2508.16 1107.69 2620.87"/><path class="cls-1" d="M2777,2611.55c20.49,13,53.41,10.25,81,11.18l-.93-26.39L2800,2596a30.54,30.54,0,0,1-9.63-22.05l67.07.62v-23.91c-5.9-.31-67.38.31-68.31-.31,8.07-24.22,22-20.49,68.31-21.11l-.31-24.22-54.34.62c-60.24,15.53-56.51,86.32-25.77,105.88Z"/><path class="cls-1" d="M2034.55,2507.53l.62,88.19c-68.93,7.14-40.05-27-47.2-88.5l-26.08-.31c-2.79,23.91-6.21,85.7,6.21,100.3,14.28,16.45,68,16.14,96,11.48V2508.15Z"/><path class="cls-1" d="M2477,2620.25h29.5l.62-89.74,33.53.62.94,89.74,30.11-.31,1.25-88.81c11.8,0,23.28-2.17,29.8,5,15.22,7.45,7.15,62.72,7.46,81.35l26.39.31,1.24-83.83c-2.17-17.39-10.24-19.56-22-27l-9.94-.31-128.86.31Z"/><path class="cls-1" d="M2187,2620.56l30.12-.31.62-91,34.15.62.62,91,31.37-1.86.62-88.5c12.11-.31,23.59-2.17,30.43,5.28,15.52,7.45,4.65,65.21,7.76,82.28l26.39.31,1.55-85.07c-2.48-17.7-10.24-19.88-22.66-27.33l-9.94-.31-131,.31Z"/><path class="cls-1" d="M1716,2468.1c-5.59,3.1-18.32,12.73-20.8,35.71-1.87,17.7.93,32.91,13,42.54,24.22,19.87,65.83.93,97.19,15.83,8.07,44.41-28,28.57-103.4,31.67l-.31,25.78c25.15.93,50.3.31,75.14.62,17.39,0,31.05.31,46.89-8.08,18.32-12.42,22.35-37.26,15.83-58.06-5-15.53-14.28-19.87-32-23.29-51.85-9.31-81.66,5.28-77.94-33.84,22.67-11.49,69.56-3.42,103.71-5.59l-.31-26.71c-11.8-.31-114.58,2.18-117.06,3.42Z"/><path class="cls-1" d="M377.69,2425.56c375.4,8.69,718.82-8.38,1192,.62,24.22,0,59.93,5.59,77.63-6.83,23.29-16.15,26.08-28.26,18.63-56.51-50,5.59-1196.38,6.83-1288-1.24Z"/><path class="cls-1" d="M2236.69,2250.75l62.72.93c6.52-16.77,9.63-32,18.32-91.29,11.18-75.76,32.6-184.75,33.22-206.18l-58.37-.31c-5.59,30.12-50.3,291.26-55.89,296.85Z"/><path class="cls-1" d="M2161.86,2069.72l-31.67,179.78,64,1.87c5.9-37.88,18-126.38,23-154.95,8.38-47.81,19.56-93.46,23.91-141.9l-59.62-1.55Z"/><path class="cls-1" d="M1397.39,2623.35c44.71-3.72,64-13.35,77.94-52.16,3.73-10.25,0-8.7,8.38-13.35l16.46-5.59.31-20.5-77,.62-.31,23,19.57,3.42c-2.18,21.42-20.5,40.05-47.51,35.4-9.94-1.87-20.49-10.56-16.77-24.85,4-14.59,15.22-9.62,26.7-13.66l.63-22.66a19.2,19.2,0,0,0-2.8-1.25l-5.59-1.86c-12.11-3.73-32.91-13.35-16.45-29.81,9.31-9.31,45-5.59,61.79-7.14l.31-28c-26.71-1.86-70.18-6.21-87.26,9-20.8,18.32-15.83,53.1,4.66,67.07-9.93,14.28-15.52,14-17.08,33.84-2.48,35.09,22.05,47.82,54,48.44Z"/><path class="cls-1" d="M2625.44,2252c-.93-15.84,24.84-156.81,30.12-171.09,13.66-.93,40.68-1.86,53.72-.31,36,4.35,25.15,30.74,15.83,79.18-4.34,21.42-15.21,70.48-14.28,90.67l55.27-.63c7.45-36.95,33.54-157.42,22.67-184.44-10.87-27.63-42.23-32.29-79.18-32.91l-102.16,3.42c-5.9-9-39.43,209.59-38.81,214.24Z"/><path class="cls-1" d="M2976,2160.7l-6.21,40.36c-11.8,11.49-53.09,3.73-67.38-2.79-36.64-17.39-38.5-137.55,88.19-117.06Zm42.85,88.8,6.52-32.6,21.12-123.58,23.29-138.49h-56.52l-14,77.32c-62.41,5-99.67-7.76-141.59,33.53-103.4,119.86-.62,215.81,161.15,183.82Z"/><path class="cls-1" d="M2405.91,2053.89c-46.88,36.32-64.89,100.91-49.68,148.42,19.88,61.79,105.26,48.13,172.64,48.13l8.39-44.72c-88.5-8.07-124.83,19.87-123.58-39.43l132-6.21,5.28-41.61-126.69-.62c9.63-59,80.11-34.16,136-41.61l8.07-43.16c-27.33-.62-58.07-1.55-85.39-.31-20.8.62-60.24,8.07-77,21.12Z"/><path class="cls-1" d="M1494.27,2242.05c28,13,94.08,11.49,128.86,9l9.94-.94,6.83-44.71-40.37-.62c-15.21.31-44.4,1.55-58.37-.93-20.19-3.42-24.84-13.66-23.29-37l128.86.93,9.62-48.13-128.86-1.55c5.28-22,11.8-29.81,31.37-35.4,16.45-8.38,83.21-5.59,101.53-5.59,5.9-17.7,8.38-25.15,9.94-43.78-61.17.31-139.11-11.49-182.27,38.82a118.42,118.42,0,0,0-19.87,32.29c-17.39,43.78-23.91,114.88,26.08,137.55Z"/><path class="cls-1" d="M1897.31,722.13a94.09,94.09,0,0,0,0-188.17c-51.55,0-93.78,42.23-93.78,94.08s42.23,94.09,93.78,94.09Z"/><path class="cls-1" d="M1897.31,656.92A28.88,28.88,0,1,0,1868.74,628a29,29,0,0,0,28.57,28.88Z"/><path class="cls-2" d="M2034.55,2505.67l29.5,2.48v110.54c-28,4.66-81.67,5-96-11.48-12.42-14.6-9-76.39-6.21-100.3l26.08.31c7.15,61.48-21.73,95.64,47.2,88.5Zm0,0c-9.32,2.48-2.48-2.17-5.59,7.76l-.93,32.3c-.31,13.66,0,27,0,40.67-50.61,16.15-18.32-25.15-32-86-12.73,0-13.35,5-22.67-2.79-14.28-11.8,11.8-5.59-8.69-12.42L1954.44,2511c-1.55,4.66-3.11,82.28,4.35,96,16.76,30.11,106.5,20.8,109.29,19.56,5.9-14.29,2.49-50.61,2.18-70.8,0-29.81,8.69-40-8.39-59.3-9.62,2.48-20.49,1.24-25.46.93-3.1,4.65-5.59-7.45-1.86,8.38Z"/><path class="cls-2" d="M1838.31,2610.62l-1.86-7.14-12.73,8.69c-15.84,8.39-29.5,8.08-46.89,8.08-24.84-.31-50,.31-75.14-.62l.31-25.78c75.45-3.1,111.47,12.74,103.4-31.67-31.36-14.9-73,4-97.19-15.83-12.11-9.63-14.91-24.84-13-42.54,2.48-23.6,12.42-25.46,21.73-36.64-9,0-16.45-.62-24.22,7.76-.31.31-.62,1.24-.93,1.55-5.9,7.46.93-6.52-2.17,4.66,7.45,12.11-5.59,27-7.45,22.67-.31,13.35,2.48,12.11,5.27,17.08,9.63,19.25-4.34,17.38,20.19,32.6a6.49,6.49,0,0,1,1.86,1.24l4,2.48c4,2.49-.62.32,4.34,2.49,19.88,9.31,52.17-6.83,81.67,9.94l-5.9,14.9c-24.84,0-73-4-94.4,3.41-10.86,17.39-4.34,29.81,2.8,42.23,11.49-.31,25.46-2.48,33.22-2.79a318.15,318.15,0,0,1,38.5-.62c28.26.93,46.89-.93,64.59-16.15Z"/><path class="cls-2" d="M1715.35,2469c40.37-5.59,75.76-5,117.68-4.35l.31,26.71c-34.15-.93-81-5.59-103.71,9.62-3.41,46.27,26.09,20.5,77.94,29.81,17.7,3.42,27,7.76,32,23.29,5.9,18.63-1.86,37.26-3.1,49.37l1.86,7.14c12.11-4,9.94-1.86,12.42-15.52,5-24.84-3.1-38.2-5-44.72-8.38-27.94-4.34-12.42,5.59-17.38,11.49,7.14,5,13,13,20.49,13.35-16.46,1.56-8.7-2.17-30.74-1.24-5.9-.31-24.53-.31-32-6.21-14.91-2.49,11.8-9.94-14-2.17-6.52-1.55-12.73.62-16.45-8.07-2.49-5.9-1.87-10.86-5-5.59,3.41-3.11,3.41-12.74,5.28-33.22,7.14-80.11-15.84-110.22-5.59-3.42,7.45-1.56,3.1-3.42,14Z"/><path class="cls-3" d="M2236.69,2645.09c11.18-3.42,111.78-60.24,118-56.2L2319.59,2537c-66.44-41.92-47.5,18.63-40.05,74.21l-24.53,8.7,1.86-94.09-41.92-3.72c-84.14,206.79-82.9,87.25,21.74,123Z"/><path class="cls-3" d="M2061.87,2147l50.93,103.08c-11.49.32-23,0-34.78.32-35.4.62-28.57,1.55-32.29-5.9-13-6.21-10.56-10.25-10.56,15.83l62.41-2.79c2.18,9.31,5,18,13,22.66a11.38,11.38,0,0,0,1.25-3.41,21.9,21.9,0,0,1,1.24-3.11c5.28-18.94-27-1.24-18.63-10.24,9.31-9.63,28.25-4.35,36-2.8l38.5-2.79c30.74,3.41,24.22.62,23-8.7l-61.79.31,80.42-200.89c-15.22,26.7-36.33,38.5-78.56,65.82l-41.92,20.81Z"/><path class="cls-3" d="M2838.76,1772c-117.68,37-253.68,90.66-364.53,146.55l-124.52,64.28-4.65,3.1c-23.29,20.19-38.82,162.4-26.71,170.16,3.11,5.28,4.35,4.35-.62,4.35.31-.31,3.73-6.83,4.35-7.45l11.8-8.7c-2.18-6.52-5.9-13-5.9-19.87.31-35.4,14.59,2.48,12.42-31.36-.62-12.11-3.73-13.35-6.52-26.7,32.6-21.43-.31-41.3,16.76,32.29.63-2.18,3.11-14,3.42-15.22l6.21-25.46c7.76-18.63,14.9-12.42,27.95-16.77,9.93-3.1,13.66-3.72,23.9-1.86l1.25,8.39c25.46-5.59,36.64-11.18,71.41-12.43,27-.93,56.2-2.79,83.53-2.17l-8.07,43.16c-55.9,7.45-126.38-17.39-136,41.61l126.69.62-5.28,41.61c-2.17,17.7,47.82,17.08,65.83,18.94,2.79-10.56,2.79-68.62,10.25-73.28,4.34,5.28,11.48-.31.31,42.23l8.69,29.5c-10.56,27.94-38.81,25.15-38.81,52.78l17.7,27.64c18.32-1.24,14-3.42,15.83-5.9l-56.82-1.87c-.62-4.65,32.91-223.25,38.81-214.24l102.16-3.42c36.95.62,68.31,5.28,79.18,32.91,10.87,27-15.22,147.49-22.67,184.44l-55.27.63c-.62-16.15,6.21-28.88,2.17-41.61v-6.21c-7.14,1.55-.62-.62-2.79,6.83-4.66,17.39,3.1,9.93-10.25,17.39-.31,11.18-4.34,10.24-2.48,24.22.93,7.76,1.24,6.83,2.48,9.62,6.83,2.8,108.06,1.24,42.23,0-24.84-.62-21.73.31-26.08,6.52,9.63,7.77,31,1.24,41.92,3.11,17.08,2.79,3.72-2.49,19.56,9.93,0-16.76-.93-18.63,3.42-30.74l2.79-7.76c.31-.62,3.42-9.62,3.73-10.25,2.17,76.39-1.56,3.73,22.66-3.1,5-10.25.93-4.66,4.66-13.66l19.56,2.48c2.49-5.28-5.9-9.93-4.66-18.94-15.21-48.44,0-104.64,28.26-132.59,41.92-41.29,78.87-28.56,141.28-33.53l14-77.32h56.52l-30.43,144.7c21.11-18.94,57.75-48.13,76.07-64.59,60.55-53.71,184.44-184.75,153.7-265.79-26.39-70.17-177.61-56.2-235-45.33-69.25,14.59-129.17,27.32-195.31,48.13Z"/><path class="cls-3" d="M1540.54,549.49c39.43,7.76,98.43,35.7,129.17,53.09,23.28,13,37.26,19.87,46,45,4.66,37.88,20.8,97.18,58.38,132.27,39.12,39.12,285.66,96,270.76-164.57-4.66-85.39,3.72-55.58-37-121.09-12.42-19.88-26.09-43.79-41.92-65.21-22.36-35.71-55.27-78.87-91.29-95.95-95.64-42.85-205.87-14-308.33-6.21-38.82,9-64.9,11.18-99.36,16.77-32.61,5.59-65.52,12.11-101.23,16.77-32.6,4-65.21,14.28-97.19,17.39-46.57,4.65-144.38,25.77-200.89,33.53-72,9.94-174.51-5-228.23,33.85,33.54,7.14,148.43-1.25,195.93,3.72,97.19,10.87,270.14,31.05,354,56.2,15.83,4.66,148.73,42.23,151.22,44.41Z"/><path class="cls-3" d="M1104,905c-27.94,19.26-53.71,37.58-81.35,57.45-38.19,27.63-77,46.88-91.29,86-42.54,118.61,101.54,192.51,177.3,132.58,19.25-15.21,40.68-53.09,44.4-74.21,14.91-84.45-28.87-111.47,18.63-154.32,12.42-11.49,46.58-34.77,62.42-41,112.09-45.34,157.42-40.37,202.45-36.95,36,2.48,87.25,17.38,120.16,34.15,22.67,11.49,41-32.6,64-38.5-41.61-43.78-218-64-319.83-45-69.24,12.11-117.06,30.43-196.86,79.8Z"/><path class="cls-3" d="M2265.26,1052.5c-14,8.08-37.89,30.74-54,42.54-32.92,24.84-104.95,62.11-149.36,64.28-150-10.87-177.61-41.92-190-49.37-14-8.7-7.45.62-53.71,46.88,71.72,42.23,223.25,86,293.74,58.69,55.89-21.74,99.36-41.92,153.39-72.35,28.56-16.45,31-17.7,63-7.45,30.74,10.25,64,7.76,87.87-10.56,5-3.72,6.52-4.34,10.87-8.38a111,111,0,0,0,17.7-21.74c10.55-16.76,16.45-37.57,16.45-61.79-.31-129.17-192.51-170.46-195.92,19.25Z"/><path class="cls-3" d="M2945.26,2179c9-7.45,25.15-18.32,35.4-22.67l9.94-75.14c-124.83-43.47-159.91,103.09-79.18,123.89,1.86.62,27.63-20.8,33.84-26.08Z"/><path class="cls-4" d="M1892.65,825.21c98.43,0,178.23-80.11,178.23-178.54,0-98.12-79.8-178.23-178.23-178.23-98.12,0-178.23,80.11-178.23,178.23,0,98.43,80.11,178.54,178.23,178.54Z"/><polygon class="cls-4" points="1613.81 2117.23 1697.96 2103.26 1704.48 2142.38 1620.34 2156.66 1613.81 2117.23"/><path class="cls-3" d="M2064.05,2551.63c-4-15.84-31.36-29.5-28.26-34.16,5,0-6.21,17.39,3.42,14.9,17.07,19.26,18.32-3.41,18.63,26.4,0,20.49-10.25,28.56-16.46,42.85,71.73-23.29-120.79,39.12,5.59,5,0-13.67-.31-42.54-.31-56.21l-2.17-34.46c3.1-9.94,10.24,38.19,19.56,35.71ZM1831.48,2596c-17.7,15.21-29.5,19.25-57.76,18-56.82-1.87-40.36-9.94-48.12-9.63-7.15-12.42-11.18,17.39,0,0,82.9-8.07,105.88-11.18,105.88-8.38ZM1487.13,1157.77c-4.66,11.17-12.42,30.74-16.15,41.91-11.8,30.43-18,55.58-27,86.64-23.6,84.14-32,328.82-14,421.35,18.63,96.57,62.41,74.83,83.83,125.76,13.66,32.29,40.37,209.59,68,304,13.35,44.71,84.77-44.09,119.86-30.43-12.11-69.24-34.47-204.62-31-266.41,10.55-11.49,12.11-14,31.67-14.6l129.79.31c85.08,0,280.39-4.34,350.87-.62l6.52,138.49,51.24-9.63c-4,48.44-16.77,101.23-25.16,149.05-5,28.56-26.08,125.75-23.59,145.62-1.87,5.9,5,9-23,8.7-11.49-.62-106.19-.31-129.79-.31,0-26.09-1.24-2.8,6.52-13,39.43-164.26-52.17-37.58-160.84,14.28-19.88,12.11-110.23,70.17-127,69.55-6.83-28.87-43.78-177.92-50.61-190.34-136.32-38.81-114,55.27-116.13,28.57.93,13.66,9,27.32,8.38,38.19l40.37.62-6.83,44.71-9.94.94c5.28,9.31,4,15.21,9.94,27.63,15.52,32.91,18.32,89.43,17.69,112.71-62.1,89.12-359.56,305.23-389.06,366.4,43.16-1.55,113-6.83,151.22-3.72-.31,34.77-7.14,56.51-10.87,120.16,54-23,91.29-45.33,114.27-54.65l3.72,111.47c77.94-19.87,104.33-24.22,156.81-38.81l5.59,108.06,59.92-90.67c18.63-31,309.58-148.42,367.33-180.09,255.86-161.47,333.48-169.85,94.71-99.68-28.57,0-14.29,2.49-18-9.31l1.55-113.65c28.57,11.18,114.89,6.21,135.69.93,67.38,36-79.49,148.74,78.87,55,147.49-85.39,284.11-187.54,421.35-288.46,12.74-9.62,45.34-32,56.21-39.74C2745,2120,2744.68,2283,2744.68,2113.5c0-57.44-86.95-110.85-110.23-36-9.63,30.12-10.56,138.18-38.2,137.25-1.86,2.48,27.64,14.59,9.32,16.14l-22.05,19.88c1.56-84.15,14.29-78.56,16.46-96.88l-186.3,12.42c-1.25,59.3,35.08,31.36,123.58,39.43l-8.39,44.72c-67.38,0-152.76,13.66-172.64-48.13-15.21-47.51,2.8-112.1,49.68-148.42,6.21-4.66,4.35.93,8.7-4.66l18.63-7.14c-177-35.09-118.3,46.57-122.65,137.55-.93,7.14-2.49,15.84-3.42,21.42-9,44.1-1.24,47.51-21.73,49.38h-44.71c-1.87-18,39.74-200.59,45.95-232-5.9,3.1-10.56,4.66-25.15,10.87-3.42-68.32-1.24-143.15.31-212.39.93-37.26,7.45-64-19.56-86.32-25.77-21.43-52.48-14.91-92.84-14.59-110.23.62-267-3.42-372.61-.32-77,2.49-71.73-24.21-75.45-96.25-3.42-61.48-6.52-171.71,4.34-230.09,4.35-24.53,10.56-78.87,18.94-95,3.11-28,22.67-75.45,33.54-101.54,5.59-14.28,11.18-36.64,22-43.16,18.63-11.18,31.67,9.32,47.19,9,26.4-5.9,50.93-24.22,48.13-46-.93-2.17-31.67-19.56-35.71-23-1.24-1.56-2.79-2.18-5-4-14-11.8-11.79-22-8.07-48.13a579,579,0,0,0,6.52-72.35c1.86-88.18-107.12-103.09-176.37-103.09-19.25,0-41.6,1.25-58.68,2.8-61.48,5.28-46.89,137.86-111.16,292.81Z"/><path class="cls-5" d="M2034.15,2509.35l.63,88.19c-68.94,7.14-40.06-27-47.2-88.5l-26.08-.31c-2.8,23.91-6.21,85.7,6.21,100.29,14.28,16.46,68,16.15,95.94,11.49V2510Z"/><path class="cls-5" d="M2186.61,2622.38l30.12-.31.62-91,34.16.62.62,91,31.36-1.87.62-88.49c12.11-.31,23.6-2.17,30.43,5.28,15.53,7.45,4.66,65.2,7.76,82.28l26.4.31,1.55-85.08c-2.48-17.69-10.25-19.87-22.67-27.32l-9.93-.31-131,.31Z"/><path class="cls-5" d="M1715.58,2469.92c-5.59,3.1-18.32,12.73-20.81,35.71-1.86,17.7.93,32.91,13,42.54,24.22,19.87,65.83.93,97.19,15.83,8.07,44.4-27.94,28.57-103.4,31.67l-.31,25.77c25.15.94,50.3.32,75.14.63,17.39,0,31.06.31,46.89-8.08,18.32-12.42,22.36-37.26,15.84-58.06-5-15.53-14.29-19.87-32-23.29-51.85-9.31-81.66,5.28-77.93-33.84,22.66-11.49,69.55-3.42,103.71-5.59l-.31-26.71c-11.8-.31-114.58,2.18-117.06,3.42Z"/><path class="cls-5" d="M1397,2625.17c44.71-3.73,64-13.35,77.93-52.16,3.73-10.25,0-8.7,8.39-13.36l16.45-5.58.31-20.5-77,.62-.31,23,19.56,3.42c-2.17,21.42-20.49,40-47.51,35.39-9.93-1.86-20.49-10.55-16.76-24.84,4-14.59,15.21-9.62,26.7-13.66l.62-22.67a19.57,19.57,0,0,0-2.79-1.24l-5.59-1.86c-12.11-3.73-32.92-13.35-16.46-29.81,9.32-9.31,45-5.59,61.79-7.14l.31-28c-26.7-1.86-70.17-6.21-87.25,9-20.8,18.32-15.84,53.09,4.66,67.07-9.94,14.28-15.53,14-17.08,33.84-2.49,35.09,22,47.82,54,48.44Z"/><path class="cls-5" d="M2477,2620.25h29.5l.62-89.74,33.53.62.94,89.74,30.11-.31,1.25-88.81c11.8,0,23.28-2.17,29.8,5,15.22,7.45,7.15,62.72,7.46,81.35l26.39.31,1.24-83.83c-2.17-17.39-10.24-19.56-22-27l-9.94-.31-128.86.31Z"/><path class="cls-5" d="M1502.81,2241.27c27.94,13,94.08,11.49,128.86,9l9.93-.93,6.83-44.72-40.36-.62c-15.22.31-44.41,1.55-58.38-.93-20.18-3.41-24.84-13.66-23.29-36.95l128.86.93,9.63-48.13L1536,2117.38c5.28-22,11.8-29.81,31.36-35.4,16.46-8.38,83.22-5.59,101.54-5.59,5.9-17.69,8.38-25.15,9.93-43.78-61.17.31-139.1-11.49-182.26,38.82a118.2,118.2,0,0,0-19.88,32.29c-17.38,43.78-23.91,114.89,26.09,137.55Z"/><path class="cls-5" d="M1934.62,2128.78c1.86-13.35,52.16-101.53,60.23-108.68l23,108.37Zm-96.31,94.14c33.53,6.21,16.51,27.89,24.89,28.82,5.59-10.56,36.33-62.1,41.3-70.17,38.81-2.18,99,.93,123.89-.93l16.77,72c9,2.18,51.54-.62,67.38-1.24L2084,2130l-41-174.5h-68.93c-23.91,29.81-164.57,279.45-178.85,290.94Z"/><path class="cls-5" d="M2235.65,2252.05l62.72.93c6.52-16.76,9.62-32,18.32-91.29,11.18-75.76,32.6-184.75,33.22-206.17l-58.37-.31c-5.59,30.12-50.3,291.25-55.89,296.84Z"/><path class="cls-5" d="M2160.81,2071l-31.67,179.78,64,1.86c5.9-37.88,18-126.37,23-154.94,8.39-47.82,19.57-93.46,23.91-141.9l-59.61-1.55Z"/><path class="cls-1" d="M2624.4,2253.29c-.93-15.83,24.84-156.8,30.12-171.09,13.66-.93,40.67-1.86,53.72-.31,36,4.35,25.15,30.74,15.83,79.18-4.35,21.43-15.21,70.49-14.28,90.67l55.27-.62c7.45-36.95,33.53-157.43,22.67-184.44-10.87-27.64-42.23-32.29-79.18-32.91l-102.16,3.41c-5.9-9-39.43,209.59-38.81,214.25Z"/><path class="cls-5" d="M2975,2162l-6.21,40.37c-11.8,11.49-53.1,3.73-67.38-2.79-36.64-17.39-38.5-137.56,88.18-117.06Zm42.85,88.81,6.52-32.6,21.12-123.58,23.28-138.49h-56.51l-14,77.32c-62.41,5-99.67-7.77-141.59,33.53-103.4,119.86-.62,215.8,161.15,183.82Z"/><path class="cls-5" d="M2404.87,2055.19c-46.88,36.33-64.89,100.92-49.68,148.42,19.87,61.79,105.26,48.13,172.64,48.13l8.39-44.71c-88.5-8.08-124.83,19.87-123.59-39.44l132-6.21,5.28-41.6-126.69-.62c9.63-59,80.11-34.16,136-41.61l8.08-43.16c-27.33-.62-58.07-1.56-85.39-.31-20.81.62-60.24,8.07-77,21.11Z"/><path class="cls-6" d="M1934.88,2127.48c1.86-13.36,52.16-101.54,60.24-108.68l23,108.36Zm-139.42,117.68c33.53,6.21,59.62,4.34,68,5.28,5.59-10.56,36.33-62.11,41.3-70.18,38.81-2.17,99,.93,123.89-.93l16.77,72c9,2.17,51.54-.62,67.38-1.25l-28.57-121.4-41-174.51h-68.93c-23.91,29.81-164.57,279.46-178.85,290.95Z"/><path class="cls-6" d="M993.42,2506.29,954.3,2506c-7.14,10.87-34.47,44.4-45.33,50l-.31-92.53-31,2.18v154.94l31-.31,1.24-50.93c11.49,10.56,35.09,38.2,43.16,51.55l40.67-.31c-8.69-21.74-35.39-36.64-48.12-58.69,12.42-20.49,38.5-36.64,47.81-55.58Z"/><path class="cls-6" d="M650.32,2497.91c30.11-10.56,68.31-3.73,101.84-5.28l.31-27c-22.35-3.42-100.29-3.73-118,3.41-28.57,11.8-33.85,64.9-5.59,81.66,26.7,15.84,100.92-9.62,95,26.71-4.66,26.39-79.8,14-106.82,15.83l.31,27c27.64,1.55,59.62,1.24,87.56.62,27.33-.62,48.44-6.52,53.72-34.16,21.74-108.67-128.24-13-108.36-88.8Z"/><path class="cls-6" d="M3004.88,2528.65l20.49,1.24,2.49,10.87.93,13,27.94-.31c1.25-23.6,4.35-41.61-18.63-47.2-13.35-3.1-46.57-1.24-62.72-1.55l-.93,116.13,30.12-.62v-64.59Z"/><polygon class="cls-6" points="1133.77 2464.68 1107.38 2464.37 1107.07 2490.46 1134.39 2492.01 1133.77 2464.68"/><path class="cls-6" d="M500,2080c1.24-17.39,3.73-26.4,6.21-41.3,6.83-37.88-10.56-31.05,82-31.05,81.36-.31,41.61,57.75,31.68,64.27-18,12.11-91.6,9.32-119.86,8.08Zm127.62,51.23L637,2125c4-2.17,7.15-2.79,11.18-4.66,56.2-27.63,72-115.5,37.26-147.8-31-28.56-183.82-20.49-230.08-18.32l-50.61,296.85,63.65.31,20.8-115.82,72-.62c13.35,27.63,36,100.91,46.58,116.13l68.93.31c-4-23.29-36.33-91.6-49.06-120.17Z"/><path class="cls-6" d="M2692.82,2426.49l621.32.62-.31-67.07H2845.59c-23,0-55.58-4.65-72.66,6.52-11.49,7.46-75.45,50.62-80.11,59.93Z"/><path class="cls-6" d="M1101.17,2203.55c-61.17.62-103.4,3.1-84.77-71.73,12.73-51.54,46.27-54.34,106.82-50.61Zm-86.94,46.26c25.46,4.35,52.16-.62,77.62,2.8-.62,22-12.11,50-9.62,71.42,73.9,2.17,53.41,16.76,77-114l4.66-25.77c9-32.61,18-105,25.46-151.53-102.77,0-200-19.25-233.5,93.46-16.45,55.89-4.34,113,58.38,123.58Z"/><path class="cls-6" d="M803.39,2083.69c36.33-19.25,70.18,3.42,69.87,41-.62,35.09-18.94,66.76-42.54,77.63-76.07,34.77-100.91-79.8-27.33-118.62Zm-45.64,166.75c27.33,7.14,58.69,6.21,84.15-1.25,37.26-10.55,72-44.09,84.46-81,18.63-54.65,9-121.1-53.41-134.76-177.61-39.12-227.29,188.48-115.2,217Z"/><path class="cls-6" d="M3073.19,2196.1c21.43,67.38,98.43,58.06,176.06,59.61l9.93-49.37c-96.87-5.9-119.85,10.25-125.44-43.47,36.64-3.72,115.2,4.66,131.65,1.56l7.77-46-128.55-.93c10.24-56.2,81-34.47,136-39.44l5.9-27.94,1.55-17.39c-59-.31-126.69-7.45-166.43,24.53-37,29.81-54.34,75.76-48.44,138.8Z"/><path class="cls-6" d="M1240,2243.91c14.28,6.21,30.74,7.46,47.81,7.77,123.58.31,111.48,8.69,117.37-29.19l17.7-95.95,15.22-93.77c-70.49-.31-56.51-9-65.52,41.3-24.53,140.35-8.69,130.1-65.52,128.55-62.41-1.56-27.32-30.12-10.86-168.3l-56.83-.62c-6.52,15.22-14.28,72-18,92.84-6.84,36.33-25.78,97.19,18.63,117.37Z"/><polygon class="cls-6" points="1107.69 2620.87 1133.77 2620.56 1134.08 2507.22 1106.45 2508.16 1107.69 2620.87"/><path class="cls-6" d="M2777,2611.55c20.49,13,53.41,10.25,81,11.18l-.93-26.39L2800,2596a30.54,30.54,0,0,1-9.63-22.05l67.07.62v-23.91c-5.9-.31-67.38.31-68.31-.31,8.07-24.22,22-20.49,68.31-21.11l-.31-24.22-54.34.62c-60.24,15.53-56.51,86.32-25.77,105.88Z"/><path class="cls-6" d="M2034.55,2507.53l.62,88.19c-68.93,7.14-40.05-27-47.2-88.5l-26.08-.31c-2.79,23.91-6.21,85.7,6.21,100.3,14.28,16.45,68,16.14,96,11.48V2508.15Z"/><path class="cls-6" d="M2477,2620.25h29.5l.62-89.74,33.53.62.94,89.74,30.11-.31,1.25-88.81c11.8,0,23.28-2.17,29.8,5,15.22,7.45,7.15,62.72,7.46,81.35l26.39.31,1.24-83.83c-2.17-17.39-10.24-19.56-22-27l-9.94-.31-128.86.31Z"/><path class="cls-6" d="M2187,2620.56l30.12-.31.62-91,34.15.62.62,91,31.37-1.86.62-88.5c12.11-.31,23.59-2.17,30.43,5.28,15.52,7.45,4.65,65.21,7.76,82.28l26.39.31,1.55-85.07c-2.48-17.7-10.24-19.88-22.66-27.33l-9.94-.31-131,.31Z"/><path class="cls-6" d="M1716,2468.1c-5.59,3.1-18.32,12.73-20.8,35.71-1.87,17.7.93,32.91,13,42.54,24.22,19.87,65.83.93,97.19,15.83,8.07,44.41-28,28.57-103.4,31.67l-.31,25.78c25.15.93,50.3.31,75.14.62,17.39,0,31.05.31,46.89-8.08,18.32-12.42,22.35-37.26,15.83-58.06-5-15.53-14.28-19.87-32-23.29-51.85-9.31-81.66,5.28-77.94-33.84,22.67-11.49,69.56-3.42,103.71-5.59l-.31-26.71c-11.8-.31-114.58,2.18-117.06,3.42Z"/><path class="cls-6" d="M377.69,2425.56c375.4,8.69,718.82-8.38,1192,.62,24.22,0,59.93,5.59,77.63-6.83,23.29-16.15,26.08-28.26,18.63-56.51-50,5.59-1196.38,6.83-1288-1.24Z"/><path class="cls-6" d="M2236.69,2250.75l62.72.93c6.52-16.77,9.63-32,18.32-91.29,11.18-75.76,32.6-184.75,33.22-206.18l-58.37-.31c-5.59,30.12-50.3,291.26-55.89,296.85Z"/><path class="cls-6" d="M2161.86,2069.72l-31.67,179.78,64,1.87c5.9-37.88,18-126.38,23-154.95,8.38-47.81,19.56-93.46,23.91-141.9l-59.62-1.55Z"/><path class="cls-6" d="M1397.39,2623.35c44.71-3.72,64-13.35,77.94-52.16,3.73-10.25,0-8.7,8.38-13.35l16.46-5.59.31-20.5-77,.62-.31,23,19.57,3.42c-2.18,21.42-20.5,40.05-47.51,35.4-9.94-1.87-20.49-10.56-16.77-24.85,4-14.59,15.22-9.62,26.7-13.66l.63-22.66a19.2,19.2,0,0,0-2.8-1.25l-5.59-1.86c-12.11-3.73-32.91-13.35-16.45-29.81,9.31-9.31,45-5.59,61.79-7.14l.31-28c-26.71-1.86-70.18-6.21-87.26,9-20.8,18.32-15.83,53.1,4.66,67.07-9.93,14.28-15.52,14-17.08,33.84-2.48,35.09,22.05,47.82,54,48.44Z"/><path class="cls-6" d="M2625.44,2252c-.93-15.84,24.84-156.81,30.12-171.09,13.66-.93,40.68-1.86,53.72-.31,36,4.35,25.15,30.74,15.83,79.18-4.34,21.42-15.21,70.48-14.28,90.67l55.27-.63c7.45-36.95,33.54-157.42,22.67-184.44-10.87-27.63-42.23-32.29-79.18-32.91l-102.16,3.42c-5.9-9-39.43,209.59-38.81,214.24Z"/><path class="cls-6" d="M2976,2160.7l-6.21,40.36c-11.8,11.49-53.09,3.73-67.38-2.79-36.64-17.39-38.5-137.55,88.19-117.06Zm42.85,88.8,6.52-32.6,21.12-123.58,23.29-138.49h-56.52l-14,77.32c-62.41,5-99.67-7.76-141.59,33.53-103.4,119.86-.62,215.81,161.15,183.82Z"/><path class="cls-6" d="M2405.91,2053.89c-46.88,36.32-64.89,100.91-49.68,148.42,19.88,61.79,105.26,48.13,172.64,48.13l8.39-44.72c-88.5-8.07-124.83,19.87-123.58-39.43l132-6.21,5.28-41.61-126.69-.62c9.63-59,80.11-34.16,136-41.61l8.07-43.16c-27.33-.62-58.07-1.55-85.39-.31-20.8.62-60.24,8.07-77,21.12Z"/><path class="cls-6" d="M1494.27,2242.05c28,13,94.08,11.49,128.86,9l9.94-.94,6.83-44.71-40.37-.62c-15.21.31-44.4,1.55-58.37-.93-20.19-3.42-24.84-13.66-23.29-37l128.86.93,9.62-48.13-128.86-1.55c5.28-22,11.8-29.81,31.37-35.4,16.45-8.38,83.21-5.59,101.53-5.59,5.9-17.7,8.38-25.15,9.94-43.78-61.17.31-139.11-11.49-182.27,38.82a118.42,118.42,0,0,0-19.87,32.29c-17.39,43.78-23.91,114.88,26.08,137.55Z"/><path class="cls-7" d="M1897.31,722.13a94.09,94.09,0,0,0,0-188.17c-51.55,0-93.78,42.23-93.78,94.08s42.23,94.09,93.78,94.09Z"/><path class="cls-4" d="M1897.31,656.92A28.88,28.88,0,1,0,1868.74,628a29,29,0,0,0,28.57,28.88Z"/><polygon class="cls-8" points="2665.27 2293.95 2672.91 2291.07 2692.82 2118.2 2656.74 2118.2 2665.27 2293.95"/><rect class="cls-9" x="2912.44" y="2117.72" width="34.54" height="56.32"/></svg>