<svg id="Capa_1" data-name="Capa 1" xmlns="http://www.w3.org/2000/svg" viewBox="0 0 2859.57 749.38"><defs><style>.cls-1,.cls-2,.cls-4{fill:#fff;}.cls-1,.cls-2{stroke:#fff;stroke-miterlimit:10;}.cls-1{stroke-width:32px;}.cls-2,.cls-3{font-size:474.36px;font-family:HanzelBoldItalic, Hanzel;letter-spacing:0.02em;}.cls-2{stroke-width:84px;}.cls-3,.cls-5{fill:#1d1d1b;}</style></defs><polygon class="cls-1" points="823.39 305.25 867.3 251.13 883.83 268.49 848.92 328.74 823.39 305.25"/><text class="cls-2" transform="translate(46.58 413.72)">Snow Easy</text><text class="cls-3" transform="translate(46.2 414.65)">Snow Easy</text><polygon class="cls-1" points="391.39 190.87 431.22 222.53 441.34 178.61 391.39 190.87"/><polygon class="cls-4" points="1813.86 632.57 1831.42 637.68 1822.64 664.74 1804.87 664.74 1813.86 632.57"/><polygon class="cls-4" points="1938.65 632.57 1962.65 632.57 1952.95 664.74 1931.5 664.74 1938.65 632.57"/><polygon class="cls-4" points="2306.82 632.57 2334.4 632.57 2323.39 667.29 2302.23 667.29 2306.82 632.57"/><path class="cls-1" d="M598.48,658.89q-5.64,24.58-21.24,36a58,58,0,0,1-18.79,8.74,95.18,95.18,0,0,1-25.17,3H447.13L454,674.47h81.24q12.45,0,17.79-3.4t7.33-11.15a8.22,8.22,0,0,0,.42-2.62v-1.75q0-4.71-2.3-7.12-3.67-2.92-14.76-2.93H506.59q-26.18,0-37.37-11.2a27.35,27.35,0,0,1-5.13-9,38.82,38.82,0,0,1-1.67-12,70.85,70.85,0,0,1,1.67-13.93q5.34-25,21-37.05a58.91,58.91,0,0,1,18.85-8.8,95.59,95.59,0,0,1,25.33-3h85l-6.86,32.13-80.52.11q-12,0-17.65,4.1-5.56,3.57-7.46,12.81a27.41,27.41,0,0,0-.42,3.68,10.65,10.65,0,0,0,2.1,6.51q4.1,3.57,12.5,3.57h41.64q27,0,36,10.57,6.48,7,6.49,20.1A79,79,0,0,1,598.48,658.89Z"/><path class="cls-1" d="M754.59,590.73l-65.62,57,40.74,59.37H683.25L653.69,658,643.1,707.06H608.72l33.33-156.61h34.32L657.58,639l52.81-48.22Z"/><path class="cls-1" d="M773.64,707.06H737.73l24.78-116.33h35.91ZM799.8,583.49H764l7.11-33h35.76Z"/><path class="cls-1" d="M1050.1,644.6h-18.63q-15.74,33-37,48.24a87.65,87.65,0,0,1-25.27,12.38,107.42,107.42,0,0,1-30.74,4.19q-26,0-39.12-11.85-9.54-8.59-9.54-22.34a46.68,46.68,0,0,1,1.36-10.07,45.91,45.91,0,0,1,3.67-11.32,39.77,39.77,0,0,1,6-10.18A64.42,64.42,0,0,1,916,629.91a38.23,38.23,0,0,1-9.65-14.37,42.29,42.29,0,0,1-1.47-11.64,52.17,52.17,0,0,1,1.26-11.12q4.41-20.44,19.4-31.56T962.87,550h53.27l-7.14,33.5-45.25.1a39.13,39.13,0,0,0-8.63.85,23.91,23.91,0,0,0-6.94,3.26q-5.79,3.88-6.63,8.2a33.26,33.26,0,0,0-1,6.84,9.78,9.78,0,0,0,2.42,6.52q3.15,4.11,11.15,4.1h13.19l-6.68,31.24H947.94a17.48,17.48,0,0,0-11.7,4,17.21,17.21,0,0,0-6.48,11,21.09,21.09,0,0,0-.41,4.7,10.44,10.44,0,0,0,3,7.73q4.9,4.92,15,4.91,15.76,0,27-8.56,10.86-8.35,18.38-23.71H972.59l6.69-31.24h77.4Z"/><path class="cls-1" d="M1292.34,658.89q-5.65,24.58-21.25,36a57.9,57.9,0,0,1-18.78,8.74,95.28,95.28,0,0,1-25.17,3h-86.09l6.91-32.14h81.23q12.46,0,17.8-3.4t7.32-11.15a8.22,8.22,0,0,0,.42-2.62v-1.75q0-4.71-2.3-7.12-3.66-2.92-14.76-2.93h-37.16q-26.17,0-37.38-11.2a27.35,27.35,0,0,1-5.13-9,39.12,39.12,0,0,1-1.67-12,71.62,71.62,0,0,1,1.67-13.93q5.34-25,21-37.05a58.91,58.91,0,0,1,18.85-8.8,95.65,95.65,0,0,1,25.33-3h85l-6.87,32.13-80.52.11q-12,0-17.65,4.1-5.57,3.57-7.46,12.81a27.41,27.41,0,0,0-.42,3.68,10.65,10.65,0,0,0,2.1,6.51c2.74,2.38,6.9,3.57,12.51,3.57h41.63q27,0,36,10.57,6.49,7,6.49,20.1A79.68,79.68,0,0,1,1292.34,658.89Z"/><path class="cls-1" d="M1407.68,707.06h-34.3l14.86-69.86a38.76,38.76,0,0,0,1.26-9.05q0-3.67-1.47-5.16-2.85-2.84-12.75-2.84h-20.75L1336,707.06h-34.35l24.77-116.33h57.23q26.13,0,35,10.18,6.09,6.6,6.09,19.09a71.22,71.22,0,0,1-1.47,14Z"/><path class="cls-1" d="M1558.17,648.53q-5.88,27.26-25.84,43.61t-47.65,16.36q-27.9,0-41-16.36-9-11.32-9-27.89a59.42,59.42,0,0,1,.41-8.38,66.57,66.57,0,0,1,1.26-7.34q5.88-27,25.74-43.46t48-16.41q27.67,0,40.78,16.36,9,11.33,9,28.1A81.23,81.23,0,0,1,1558.17,648.53Zm-35.65,0a59.94,59.94,0,0,0,1-10.07q0-7.76-3.46-12.68-4.71-8.17-16.56-8.18a27.69,27.69,0,0,0-19.71,8q-8.61,8-11.64,23a57,57,0,0,0-1.26,11,22.83,22.83,0,0,0,3,12.05q4.93,8,16.57,8a27.73,27.73,0,0,0,20.13-8Q1518.86,663.83,1522.52,648.53Z"/><path class="cls-1" d="M1766,590.73l-63.62,116.33H1664.9l-7-69.5L1622,707.06h-35.9L1570.3,590.73h36.33L1614,661.6l36.75-70.87h35.07l7.24,71.08,37.49-71.08Z"/><path class="cls-1" d="M1876.57,647.09q-5.55,27.21-23.85,43.31t-45,16.21h-58.26l33.26-156.16h34.34l-8.45,40.28h22q16.8,0,26.4,3.76a32,32,0,0,1,15.45,13.88,50.43,50.43,0,0,1,5.53,17.74V631q0,5-.21,8.36C1877.54,641.8,1877.13,644.37,1876.57,647.09Zm-35.87,2.6a60.68,60.68,0,0,0,1.27-11.47q0-7.37-3.27-11.68-4.93-6.84-21.46-6.84l-15.15.21-12.31,58.18H1807q15.15,0,22.83-6.52Q1837.45,665.36,1840.7,649.69Z"/><path class="cls-1" d="M2007.74,648.53q-5.88,27.26-25.85,43.61t-47.65,16.36q-27.88,0-41-16.36-9-11.32-9-27.89a59,59,0,0,1,.42-8.38,66.57,66.57,0,0,1,1.26-7.34q5.86-27,25.74-43.46t48-16.41q27.69,0,40.79,16.36,9,11.33,9,28.1A82,82,0,0,1,2007.74,648.53Zm-35.65,0a59.94,59.94,0,0,0,1.05-10.07q0-7.76-3.46-12.68-4.73-8.17-16.57-8.18a27.71,27.71,0,0,0-19.71,8q-8.6,8-11.63,23a57,57,0,0,0-1.26,11,22.83,22.83,0,0,0,3,12.05q4.92,8,16.56,8a27.7,27.7,0,0,0,20.13-8Q1968.42,663.83,1972.09,648.53Z"/><path class="cls-1" d="M2124.53,706.61H2043.8q-16.86,0-25-9.21-5-5.55-5-15.18a60.34,60.34,0,0,1,1-10.25q4.18-20.21,17.06-29,12.66-8.79,37.26-8.79h35.68a19.49,19.49,0,0,0,.63-4.72,9.15,9.15,0,0,0-3-7.32q-4.29-3.36-18.22-3.35h-50.86l6-28.07h61.89q23.57,0,33.29,11.1,6.81,7,6.81,20.62a67.38,67.38,0,0,1-1.26,12.14ZM2095.14,679l3.63-17.2h-31.19q-6,0-8.08.2a11.86,11.86,0,0,0-4.46,1.77,5.76,5.76,0,0,0-3,2.9,13.79,13.79,0,0,0-1.35,4.25,33.36,33.36,0,0,0-.41,3.42,6.72,6.72,0,0,0,.93,3q1.65,1.67,10.57,1.66Z"/><path class="cls-1" d="M2247.8,642.33h-32.89L2218.5,625a16,16,0,0,0,.63-4.12,3.29,3.29,0,0,0-.63-2.32,5.92,5.92,0,0,0-2.43-1.16,28.89,28.89,0,0,0-6-.42h-7.46l-19.19,90.07h-34.35l24.78-116.33h51.3q18.38,0,24,6.9,4.29,4.27,4.29,13.26a48.37,48.37,0,0,1-1.26,10.24Z"/><path class="cls-1" d="M2358.48,706.61H2300q-26.16,0-37.68-15.81-7.53-10-7.54-26a90.14,90.14,0,0,1,2.41-19.05,65.15,65.15,0,0,1,7-19.57A106,106,0,0,1,2270,617a61.38,61.38,0,0,1,7.54-8.59q10-9.84,21.2-13.76t27.89-3.93H2349l8.56-40.28h34.16Zm-27.94-29,12.26-57.94h-15.09q-16.66,0-24.2,6.6-7.76,6.29-11.42,23.05-.63,3.57-1.05,6.39a36.55,36.55,0,0,0-.42,5.35q0,6.28,2.62,10,5.13,6.51,20.12,6.5Z"/><path class="cls-5" d="M598.67,658.74q-5.65,24.64-21.28,36.07a57.92,57.92,0,0,1-18.82,8.75,95.13,95.13,0,0,1-25.22,3H447l6.92-32.18h81.36q12.48,0,17.82-3.41t7.34-11.17a8.22,8.22,0,0,0,.42-2.62v-1.89c0-3.14-.77-5.52-2.3-7.12q-3.67-2.94-14.79-2.94H506.51q-26.2,0-37.42-11.22a27.25,27.25,0,0,1-5.14-9,38.94,38.94,0,0,1-1.68-12.06A71.22,71.22,0,0,1,464,599q5.34-25.05,21.07-37.11a58.93,58.93,0,0,1,18.87-8.81,96,96,0,0,1,25.38-3H614.5l-6.92,32.4-80.52.1q-11.94,0-17.61,4.09-5.56,3.57-7.44,12.79a27.48,27.48,0,0,0-.42,3.67,10.65,10.65,0,0,0,2.09,6.5q4.1,3.57,12.48,3.57h41.62q27.06,0,36.07,10.59,6.49,7,6.5,20.13A79.14,79.14,0,0,1,598.67,658.74Z"/><path class="cls-5" d="M754.68,590.49l-65.53,56.88,40.68,59.29H683.38l-29.56-49.07-10.59,49.07H608.84L642.18,550h34.29l-18.88,88.91,53-48.44Z"/><path class="cls-5" d="M773.76,706.66H737.9l24.75-116.17H798.5ZM800,583.15H764.11L771.24,550H807.1Z"/><path class="cls-5" d="M1050.44,644.59h-18.87q-15.73,33-37,48.23a87.5,87.5,0,0,1-25.27,12.37,107.18,107.18,0,0,1-30.72,4.19q-26,0-39.1-11.84-9.54-8.6-9.54-22.34a46.52,46.52,0,0,1,1.36-10.06A45.49,45.49,0,0,1,895,653.82a39.54,39.54,0,0,1,6-10.17,64,64,0,0,1,15.2-13.74,38.28,38.28,0,0,1-9.65-14.36A42.29,42.29,0,0,1,905,603.91a52,52,0,0,1,1.26-11.11q4.41-20.44,19.4-31.56T963,550h53.26l-7.13,33.45-45.29.1a38.89,38.89,0,0,0-8.6.84,24.15,24.15,0,0,0-6.92,3.25q-5.76,3.89-6.6,8.18a33,33,0,0,0-1.05,6.81,9.7,9.7,0,0,0,2.41,6.5q3.15,4.1,11.12,4.09h13.1l-6.71,31.35H947.9a17.57,17.57,0,0,0-11.74,4,17.26,17.26,0,0,0-6.5,11,20.54,20.54,0,0,0-.42,4.72,10.54,10.54,0,0,0,3,7.76q4.94,4.94,15.1,4.93,15.82,0,27-8.6,10.91-8.39,18.45-23.8H972.65l6.71-31.35h77.69Z"/><path class="cls-5" d="M1292.52,658.74q-5.65,24.64-21.28,36.07a57.83,57.83,0,0,1-18.82,8.75,95.05,95.05,0,0,1-25.21,3h-86.39l6.92-32.18h81.35q12.48,0,17.83-3.41t7.34-11.17a8.5,8.5,0,0,0,.42-2.62v-1.89c0-3.14-.77-5.52-2.31-7.12q-3.67-2.94-14.78-2.94h-37.22q-26.22,0-37.43-11.22a27.25,27.25,0,0,1-5.14-9,38.94,38.94,0,0,1-1.68-12.06A71.22,71.22,0,0,1,1157.8,599q5.35-25.05,21.07-37.11a59,59,0,0,1,18.88-8.81,95.83,95.83,0,0,1,25.37-3h85.23l-6.92,32.4-80.51.1q-12,0-17.62,4.09-5.55,3.57-7.44,12.79a27.48,27.48,0,0,0-.42,3.67,10.6,10.6,0,0,0,2.1,6.5q4.08,3.57,12.47,3.57h41.62q27.06,0,36.07,10.59,6.49,7,6.5,20.13A79.14,79.14,0,0,1,1292.52,658.74Z"/><path class="cls-5" d="M1407.75,706.66h-34.29l14.79-69.53a38.92,38.92,0,0,0,1.25-9q0-3.66-1.46-5.13-2.83-2.82-12.69-2.83H1354.7l-18.46,86.5h-34.38l24.74-116.17h57.14q26.1,0,34.91,10.16,6.07,6.6,6.08,19.07a71,71,0,0,1-1.47,13.93Z"/><path class="cls-5" d="M1558.3,648.37q-5.86,27.25-25.84,43.61t-47.65,16.36q-27.9,0-41-16.36-9-11.33-9-27.89a59.21,59.21,0,0,1,.42-8.39,63.94,63.94,0,0,1,1.25-7.33q5.88-27.06,25.74-43.46t48-16.41q27.67,0,40.78,16.36,9,11.31,9,28.09A81.32,81.32,0,0,1,1558.3,648.37Zm-35.65,0a59.94,59.94,0,0,0,1-10.07q0-7.75-3.46-12.69-4.71-8.18-16.56-8.17a27.68,27.68,0,0,0-19.71,8q-8.6,8-11.64,23a56.94,56.94,0,0,0-1.26,11,22.84,22.84,0,0,0,3,12.06q4.94,8,16.57,8a27.77,27.77,0,0,0,20.13-8Q1519,663.68,1522.65,648.37Z"/><path class="cls-5" d="M1766,590.49l-63.53,116.17H1665l-7-69.41-35.86,69.41h-35.86l-15.72-116.17h36.27l7.34,70.77,36.7-70.77h35l7.24,71,37.43-71Z"/><path class="cls-5" d="M1876.81,646.9q-5.55,27.26-23.9,43.4t-45.08,16.25h-58.4L1782.77,550h34.28l-8.49,40.47h22.12q16.89,0,26.53,3.78a32.09,32.09,0,0,1,15.51,13.94,50.62,50.62,0,0,1,5.56,17.82v4.72c0,3.36-.07,6.15-.21,8.39C1877.79,641.59,1877.37,644.17,1876.81,646.9Zm-36.06,2.41a60.94,60.94,0,0,0,1.26-11.43q0-7.33-3.25-11.64-4.93-6.81-21.39-6.81l-15.1.21-12.27,58h17.2q15.09,0,22.75-6.5Q1837.5,664.93,1840.75,649.31Z"/><path class="cls-5" d="M2007.87,648.37Q2002,675.63,1982,692t-47.65,16.36q-27.88,0-41-16.36-9-11.33-9-27.89a59.21,59.21,0,0,1,.42-8.39,66.89,66.89,0,0,1,1.26-7.33q5.87-27.06,25.74-43.46t48-16.41q27.69,0,40.79,16.36,9,11.31,9,28.09A82.07,82.07,0,0,1,2007.87,648.37Zm-35.65,0a59.94,59.94,0,0,0,1-10.07q0-7.75-3.46-12.69-4.72-8.18-16.57-8.17a27.7,27.7,0,0,0-19.71,8q-8.6,8-11.63,23a56.94,56.94,0,0,0-1.26,11,22.84,22.84,0,0,0,3,12.06q4.92,8,16.56,8a27.74,27.74,0,0,0,20.13-8Q1968.56,663.68,1972.22,648.37Z"/><path class="cls-5" d="M2124.66,706.55h-80.73q-16.87,0-25-9.22-5-5.57-5-15.21a60.65,60.65,0,0,1,1.05-10.27q4.2-20.24,17.09-29,12.69-8.8,37.33-8.81H2105a19.49,19.49,0,0,0,.63-4.72,9.17,9.17,0,0,0-3-7.34q-4.3-3.35-18.24-3.35h-50.85l6-28.1h61.85q23.59,0,33.34,11.12,6.81,7,6.82,20.65a67.67,67.67,0,0,1-1.26,12.16Zm-29.14-27.68,3.67-17.4h-31.56c-4.06,0-6.78.07-8.18.21a12.11,12.11,0,0,0-4.51,1.78,5.91,5.91,0,0,0-3,2.94,14.12,14.12,0,0,0-1.36,4.3c-.28,1.88-.42,3-.42,3.46a6.76,6.76,0,0,0,.94,3q1.68,1.68,10.7,1.67Z"/><path class="cls-5" d="M2248,642.28H2215l3.56-17.19a15.76,15.76,0,0,0,.63-4.09,3.26,3.26,0,0,0-.63-2.31,6,6,0,0,0-2.41-1.15,28.5,28.5,0,0,0-6-.42h-7.54l-19.09,89.54H2149.2l24.74-116.17h51.27q18.45,0,24.11,6.92,4.3,4.3,4.3,13.32a48.7,48.7,0,0,1-1.26,10.27Z"/><path class="cls-5" d="M2358.57,706.55h-58.4q-26.21,0-37.74-15.83-7.56-10.07-7.55-26a89.75,89.75,0,0,1,2.41-19.08,65.67,65.67,0,0,1,7-19.61,106.37,106.37,0,0,1,5.77-9.22,61.53,61.53,0,0,1,7.55-8.6q10.07-9.86,21.23-13.79t27.94-3.93h22.33l8.6-40.47h34.18Zm-27.89-28.93,12.27-58h-15.1q-16.67,0-24.22,6.6-7.76,6.3-11.43,23.07-.63,3.57-1,6.39a36.55,36.55,0,0,0-.42,5.35q0,6.29,2.63,10.07,5.13,6.5,20.12,6.5Z"/><polygon class="cls-4" points="1488.27 632.57 1515.84 632.57 1502.06 672.91 1482.65 664.74 1488.27 632.57"/><polygon class="cls-4" points="1268.69 599.89 1308.2 628.29 1315.67 590.73 1268.69 599.89"/><polygon class="cls-4" points="703.93 651.98 732.01 683.13 744.78 620.83 703.93 651.98"/><polygon class="cls-4" points="571.67 599.38 614.5 628.29 623.76 590.73 571.67 599.38"/></svg>