<svg id="Capa_1" data-name="Capa 1" xmlns="http://www.w3.org/2000/svg" xmlns:xlink="http://www.w3.org/1999/xlink" viewBox="0 0 157 121"><defs><style>.cls-1,.cls-6{fill:none;}.cls-2{fill:#fff;}.cls-3,.cls-7{fill:#1d1d1b;}.cls-3{stroke:#1d1d1b;stroke-linejoin:round;stroke-width:0.84px;}.cls-3,.cls-6{stroke-linecap:round;}.cls-4{clip-path:url(#clip-path);}.cls-5{fill:#a7bccb;}.cls-6{stroke:#a7bccb;stroke-width:2.8px;}.cls-8{fill:#dc2f34;}</style><clipPath id="clip-path"><path class="cls-1" d="M114,61.52a34.48,34.48,0,0,1-68.95,0"/></clipPath></defs><path class="cls-2" d="M110.8,51.79H48.29c-.21.64-.19.71-.37,1.37h63.25A8.62,8.62,0,0,0,110.8,51.79Z"/><path class="cls-2" d="M130.53,51.23h-6.78a45.84,45.84,0,0,0-89,0H28.57c-5,0-9,4.41-9,9.85s4,9.83,9,9.83h5.85a45.83,45.83,0,0,0,89.6,0h6.51c5,0,9-4.4,9-9.83S135.52,51.23,130.53,51.23Z"/><path class="cls-3" d="M27.35,64.87a5.69,5.69,0,0,1-.1-8.15,6.29,6.29,0,0,1,4.53-1.51,13.7,13.7,0,0,1,2.08.14c.54.07,1,.2,1.43.25.16,0,.21.08.21.16s0,.29-.07.8,0,1.26,0,1.54,0,.33-.17.33-.15-.12-.15-.32a2,2,0,0,0-.55-1.31,4.24,4.24,0,0,0-2.91-.89,3.73,3.73,0,0,0-2.7.89,4.8,4.8,0,0,0-1.31,3.71,4.82,4.82,0,0,0,4.51,5.1c1.27,0,2-.15,2.62-.81a2.25,2.25,0,0,0,.49-.94c0-.23.07-.29.18-.29s.13.1.13.21a13.89,13.89,0,0,1-.31,1.91c-.08.25-.13.32-.38.41a7.91,7.91,0,0,1-2.58.34A7.13,7.13,0,0,1,27.35,64.87Z"/><path class="cls-3" d="M37.88,60.55c0-1.85,0-2.19,0-2.58s-.15-.54-.55-.66a2.17,2.17,0,0,0-.5,0c-.13,0-.21,0-.21-.13s.1-.12.28-.12c.66,0,1.46,0,1.82,0s3.19,0,3.44,0,.43-.06.53-.07.15,0,.2,0S43,57,43,57a5.82,5.82,0,0,0-.1.79c0,.13,0,.65-.07.8s0,.2-.15.2-.1-.06-.1-.16a1.14,1.14,0,0,0-.08-.44c-.11-.22-.21-.39-.83-.44-.22,0-1.72-.06-2-.06-.06,0-.09,0-.09.11v3c0,.07,0,.13.09.13.29,0,1.92,0,2.2,0s.49-.06.61-.19.14-.15.2-.15.1,0,.1.13,0,.27-.1.88c0,.25-.06.74-.06.82s0,.27-.13.27-.12,0-.12-.1a4,4,0,0,0,0-.44c-.07-.24-.23-.43-.7-.47-.23,0-1.66-.06-2-.06-.06,0-.08.06-.08.13v1c0,.42,0,1.44,0,1.8,0,.84.42,1,1.71,1a3.26,3.26,0,0,0,1.19-.16c.31-.14.45-.4.54-.9,0-.13.06-.18.14-.18s.12.16.12.28A8.44,8.44,0,0,1,43.1,66c-.09.31-.2.31-.68.31-.94,0-1.7,0-2.32,0l-1.46,0h-.72l-.87,0c-.16,0-.24,0-.24-.14s0-.12.2-.12a2.45,2.45,0,0,0,.44,0c.25-.06.33-.29.37-.65.06-.52.06-1.47.06-2.59Z"/><path class="cls-3" d="M45.41,60.55V58c0-.42-.15-.54-.55-.66a2.23,2.23,0,0,0-.5,0c-.13,0-.22,0-.22-.13s.1-.12.29-.12c.66,0,1.46,0,1.72,0l2,0a4.44,4.44,0,0,1,2.39.52,2.13,2.13,0,0,1,.89,1.67c0,.91-.51,1.71-1.75,2.7,1.12,1.37,2,2.48,2.77,3.24a2.34,2.34,0,0,0,1.34.8,1.16,1.16,0,0,0,.3,0,.16.16,0,0,1,.17.12c0,.11-.09.14-.25.14H52.76A2.64,2.64,0,0,1,51.39,66a5.65,5.65,0,0,1-1.72-1.79c-.5-.66-1-1.47-1.19-1.66a.29.29,0,0,0-.23-.08l-1.13,0a.09.09,0,0,0-.1.1v.18c0,1.13,0,2.07.07,2.59,0,.36.1.59.49.65.19,0,.46,0,.62,0a.14.14,0,0,1,.15.12c0,.1-.1.14-.25.14-.73,0-1.78,0-2,0s-1,0-1.54,0c-.16,0-.25,0-.25-.14s0-.12.21-.12a2.55,2.55,0,0,0,.44,0c.26-.06.33-.29.37-.65,0-.52,0-1.47,0-2.59Zm1.61,1c0,.12,0,.17.12.21a3.29,3.29,0,0,0,1,.11,1.27,1.27,0,0,0,.89-.2,2.06,2.06,0,0,0,.81-1.8,1.91,1.91,0,0,0-1.92-2.16,4.47,4.47,0,0,0-.74,0,.15.15,0,0,0-.12.17Z"/><path class="cls-3" d="M54.81,60.55c0-1.85,0-2.19,0-2.58s-.14-.54-.54-.66a2.39,2.39,0,0,0-.51,0c-.13,0-.21,0-.21-.13s.1-.12.29-.12c.65,0,1.46,0,1.72,0l2,0a4.44,4.44,0,0,1,2.39.52,2.13,2.13,0,0,1,.89,1.67c0,.91-.52,1.71-1.75,2.7,1.12,1.37,2,2.48,2.77,3.24a2.31,2.31,0,0,0,1.34.8,1.13,1.13,0,0,0,.3,0,.15.15,0,0,1,.16.12c0,.11-.08.14-.24.14H62.16A2.62,2.62,0,0,1,60.79,66a5.65,5.65,0,0,1-1.72-1.79c-.5-.66-1-1.47-1.19-1.66a.29.29,0,0,0-.23-.08l-1.13,0a.09.09,0,0,0-.1.1v.18c0,1.13,0,2.07.07,2.59,0,.36.1.59.49.65l.61,0a.15.15,0,0,1,.16.12c0,.1-.1.14-.26.14-.73,0-1.77,0-2,0s-1.05,0-1.55,0c-.15,0-.24,0-.24-.14s0-.12.2-.12a2.36,2.36,0,0,0,.44,0c.27-.06.34-.29.38-.65.05-.52.05-1.47.05-2.59Zm1.61,1c0,.12,0,.17.12.21a3.26,3.26,0,0,0,1,.11,1.25,1.25,0,0,0,.89-.2,2,2,0,0,0,.82-1.8,1.91,1.91,0,0,0-1.92-2.16,4.32,4.32,0,0,0-.74,0,.15.15,0,0,0-.12.17Z"/><path class="cls-3" d="M62.77,61.62c0-2.07,1.46-4.76,5.28-4.76,3.18,0,5.16,1.76,5.16,4.55a4.92,4.92,0,0,1-5.29,5A4.75,4.75,0,0,1,62.77,61.62Zm8.56.23c0-2.69-1.62-4.35-3.65-4.35-1.4,0-3.05.75-3.05,3.75,0,2.5,1.43,4.49,3.81,4.49C69.33,65.74,71.33,65.32,71.33,61.85Z"/><path class="cls-3" d="M79.92,64.87a5.67,5.67,0,0,1-.09-8.15,6.26,6.26,0,0,1,4.52-1.51,13.7,13.7,0,0,1,2.08.14c.54.07,1,.2,1.43.25.16,0,.22.08.22.16s0,.29-.07.8,0,1.26-.05,1.54,0,.33-.17.33-.14-.12-.14-.32a2.05,2.05,0,0,0-.56-1.31,4.23,4.23,0,0,0-2.91-.89,3.69,3.69,0,0,0-2.69.89,4.77,4.77,0,0,0-1.32,3.71,4.82,4.82,0,0,0,4.51,5.1c1.28,0,2-.15,2.63-.81a2.34,2.34,0,0,0,.48-.94c0-.23.07-.29.19-.29s.12.1.12.21a12.5,12.5,0,0,1-.31,1.91.48.48,0,0,1-.37.41,8,8,0,0,1-2.58.34A7.16,7.16,0,0,1,79.92,64.87Z"/><path class="cls-3" d="M91.43,63.17c-.07,0-.09,0-.12.09l-.67,1.63a2.2,2.2,0,0,0-.19.74c0,.22.12.35.51.35h.18c.16,0,.19.06.19.12s-.07.14-.2.14c-.42,0-1,0-1.4,0-.13,0-.81,0-1.47,0-.15,0-.23,0-.23-.14s0-.12.15-.12l.37,0c.58-.08.79-.46,1-1.07l3.29-7.66c.14-.35.25-.49.38-.49s.24.12.37.39c.29.67,2.4,5.66,3.2,7.5.5,1.11.85,1.26,1.08,1.31a4.47,4.47,0,0,0,.47,0c.11,0,.17,0,.17.12s-.07.14-.54.14-1.36,0-2.42,0c-.23,0-.37,0-.37-.11s0-.11.15-.12a.19.19,0,0,0,.12-.27l-1-2.45a.13.13,0,0,0-.13-.09Zm2.69-.68c.06,0,.07,0,.06-.07L93,59.33s0-.12-.06-.12-.05.08-.06.12l-1.23,3.08c0,.06,0,.08,0,.08Z"/><path class="cls-3" d="M98.68,66.08c-.2-.09-.24-.14-.24-.41,0-.67,0-1.42.06-1.62s.06-.32.16-.32.13.11.13.2a2.38,2.38,0,0,0,.12.63,2,2,0,0,0,2,1.2,1.58,1.58,0,0,0,1.75-1.54c0-.54-.13-1.06-1.24-1.73l-.74-.42c-1.49-.88-2-1.69-2-2.77,0-1.48,1.43-2.44,3.18-2.44a8,8,0,0,1,1.79.19c.11,0,.17.08.17.16s0,.5,0,1.46c0,.26-.06.39-.16.39s-.13-.07-.13-.22a1.37,1.37,0,0,0-.33-.79,1.68,1.68,0,0,0-1.4-.58c-.9,0-1.72.47-1.72,1.3,0,.55.2,1,1.33,1.61l.52.28c1.66.92,2.17,1.86,2.17,3a2.59,2.59,0,0,1-1.25,2.27,3.71,3.71,0,0,1-2.11.5A5.43,5.43,0,0,1,98.68,66.08Z"/><path class="cls-3" d="M108.35,57.77l-1.88,0c-.73,0-1,.09-1.22.36a1.58,1.58,0,0,0-.21.42c0,.1-.06.16-.14.16s-.12-.07-.12-.2.25-1.38.27-1.48.07-.22.15-.22.23.09.54.13a10.23,10.23,0,0,0,1.26.06h5.12A5.39,5.39,0,0,0,113,57l.34-.05c.08,0,.1.07.1.26s0,1.16,0,1.47c0,.13,0,.2-.11.2s-.14-.06-.14-.24l0-.13c0-.32-.36-.68-1.49-.7l-1.59,0V62.7c0,1.12,0,2.07.07,2.61,0,.34.11.57.49.63.17,0,.45,0,.64,0s.2.07.2.12-.1.14-.24.14c-.84,0-1.68,0-2,0s-1.14,0-1.64,0c-.16,0-.24,0-.24-.14s0-.12.19-.12a2.39,2.39,0,0,0,.45,0c.26-.06.32-.29.37-.65.06-.52.06-1.47.06-2.59Z"/><path class="cls-3" d="M113.75,61.62c0-2.07,1.46-4.76,5.28-4.76,3.18,0,5.16,1.76,5.16,4.55a4.92,4.92,0,0,1-5.28,5C115.24,66.39,113.75,63.78,113.75,61.62Zm8.56.23c0-2.69-1.61-4.35-3.65-4.35-1.4,0-3,.75-3,3.75,0,2.5,1.44,4.49,3.81,4.49C120.31,65.74,122.31,65.32,122.31,61.85Z"/><path class="cls-3" d="M126.11,60.55c0-1.85,0-2.19,0-2.58s-.15-.54-.55-.66a2.23,2.23,0,0,0-.5,0c-.13,0-.22,0-.22-.13s.11-.12.29-.12c.66,0,1.46,0,1.72,0l2,0a4.46,4.46,0,0,1,2.39.52,2.13,2.13,0,0,1,.89,1.67c0,.91-.52,1.71-1.75,2.7,1.11,1.37,2,2.48,2.76,3.24a2.38,2.38,0,0,0,1.35.8,1.13,1.13,0,0,0,.3,0,.15.15,0,0,1,.16.12c0,.11-.09.14-.25.14h-1.2a2.62,2.62,0,0,1-1.37-.25,5.55,5.55,0,0,1-1.72-1.79c-.5-.66-1-1.47-1.19-1.66a.3.3,0,0,0-.24-.08l-1.12,0a.09.09,0,0,0-.1.1v.18c0,1.13,0,2.07.06,2.59,0,.36.11.59.49.65l.62,0a.15.15,0,0,1,.16.12c0,.1-.11.14-.26.14-.73,0-1.78,0-2,0s-1,0-1.55,0c-.16,0-.24,0-.24-.14s0-.12.2-.12a2.55,2.55,0,0,0,.44,0c.26-.06.33-.29.37-.65.06-.52.06-1.47.06-2.59Zm1.61,1c0,.12,0,.17.11.21a3.33,3.33,0,0,0,1,.11,1.27,1.27,0,0,0,.89-.2,2.07,2.07,0,0,0,.82-1.8,1.91,1.91,0,0,0-1.92-2.16,4.53,4.53,0,0,0-.75,0c-.09,0-.11.07-.11.17Z"/><g class="cls-4"><path class="cls-5" d="M69.2,71.86s7.54.83,8.42,2.6c.27.55-4.91,1.77-8.08,2.63s-8.75,2.19-8.69,3.66,2.86,2,8.14,3.36,31.15,6.34,31.15,6.34L103,87.74c-4.08-.3-18-2.6-24-3.68-8-1.46-14.68-2.27-14.76-4s15.31-4,16.68-5.77-11.64-2.87-11.64-2.87Z"/><path class="cls-5" d="M82.79,72.35c2.42.31,6.87,1,6.88,1.51,0,.37-3.87,1.54-6.28,2.34s-7.59,1.55-8,2.57,1.26,1.22,4.37,1.81,26,4.29,26,4.29l3.14-2.79S94,80.75,90.34,80.38c-4.9-.51-12-1.23-11.49-1.78.88-.89,11.58-3.74,13.08-5,.76-.67-5.81-1.45-9-1.58Z"/></g><path class="cls-6" d="M130.53,51.23h-6.61a45.55,45.55,0,0,0-88.75,0h-6.6c-5,0-9,4.41-9,9.85s4,9.83,9,9.83H35a45.56,45.56,0,0,0,89.16,0h6.4c5,0,9-4.4,9-9.83S135.52,51.23,130.53,51.23Z"/><path class="cls-5" d="M79.54,27a34.46,34.46,0,0,1,33.07,24.75H122a43.52,43.52,0,0,0-84.84,0h9.34A34.48,34.48,0,0,1,79.54,27Zm33.32,43.32a34.47,34.47,0,0,1-66.64,0h-9.3a43.53,43.53,0,0,0,85.25,0Z"/><path class="cls-7" d="M45.24,41.58l-.52.87-.54-.32,1.43-2.4.54.32-.52.88L48,42.35l-.38.65Z"/><path class="cls-7" d="M47.32,37.31l.46-.59,2.7,2.07-.46.59Z"/><path class="cls-7" d="M49.86,34.24l1.78-1.82.45.43-1.25,1.29.51.51,1.16-1.18.42.41-1.16,1.18.6.58,1.29-1.31.45.44L52.3,36.61Z"/><path class="cls-7" d="M54,30.29l1.46-1.12a1,1,0,0,1,1.37.15.83.83,0,0,1,.09,1h0a.78.78,0,0,1,.88.34c.14.16.38.48.6.55l-.59.45a3.15,3.15,0,0,1-.59-.57.5.5,0,0,0-.76-.07l-.6.45.81,1.07-.6.45Zm1.53.77.65-.5a.43.43,0,0,0,.12-.7c-.2-.26-.43-.26-.7-.06l-.65.5Z"/><path class="cls-7" d="M59,26.81l1.62-.88a.92.92,0,0,1,1.32.35.81.81,0,0,1-.06,1h0a.77.77,0,0,1,.81.46c.12.18.31.54.52.64l-.66.36a3.83,3.83,0,0,1-.5-.65.49.49,0,0,0-.75-.18l-.65.35.64,1.17-.66.36Zm1.41,1,.71-.4c.29-.16.39-.37.22-.67s-.39-.33-.68-.17l-.72.39Z"/><path class="cls-7" d="M65.34,23.79l.72-.26,2.37,2.76-.73.27-.5-.63-1.2.44v.81l-.71.26Zm.65,2,.83-.3-.83-1h0Z"/><path class="cls-7" d="M73.87,21.59l1.46-.15A1.48,1.48,0,0,1,77.05,23a1.5,1.5,0,0,1-1.36,1.87L74.23,25Zm1,2.69.66-.08c.43,0,.82-.35.74-1.1s-.35-1.1-1.1-1l-.53.06Z"/><path class="cls-7" d="M80.08,21.2l2.55.11,0,.63-1.8-.07,0,.72,1.65.07,0,.59-1.65-.07,0,.83,1.84.08,0,.63-2.58-.11Z"/><path class="cls-7" d="M85.73,21.67l.74.14L86,24.54l1.64.3-.11.62L85.12,25Z"/><path class="cls-7" d="M94.63,24.12l2.2,1-.25.58L95.07,25l-.32.72,1.31.57-.23.54-1.31-.58L94,27.55l-.69-.3Z"/><path class="cls-7" d="M100.92,29.85a1.46,1.46,0,0,1-2.47-1.54l1.13-1.8.63.39-1.12,1.8c-.19.32-.31.68.2,1s.73.18,1-.25l1.13-1.8.63.4Z"/><path class="cls-7" d="M104.67,30l2,1.65-.42.48L104.84,31l-.47.56,1.25,1.06-.37.44L104,32l-.53.64,1.4,1.19-.41.48-2-1.68Z"/><path class="cls-7" d="M108.27,37.73a1.17,1.17,0,0,1-1-.39A1.79,1.79,0,0,1,110,35a1.36,1.36,0,0,1,0,1.87l-.47-.54a.7.7,0,0,0,0-.92c-.44-.51-1-.32-1.49.07s-.7.94-.26,1.45a.74.74,0,0,0,1.09.13l-.5-.57.42-.37,1,1.08-1.39,1.22L108,38Z"/><path class="cls-7" d="M113.76,40.06a1.79,1.79,0,1,1-2.42-.46A1.66,1.66,0,0,1,113.76,40.06Zm-2.49,1.56a1,1,0,0,0,1.46.18c.5-.32.85-.84.49-1.4s-1-.48-1.48-.17A1,1,0,0,0,111.27,41.62Z"/><path class="cls-7" d="M65.68,98.65A1.46,1.46,0,0,1,63,97.53l.82-2,.69.29-.82,2a.64.64,0,0,0,.36,1c.5.2.75,0,.94-.42l.82-2,.69.29Z"/><path class="cls-7" d="M68.6,99.75c-.11.45.18.71.57.81s.66.1.75-.24-.38-.55-.83-.81-.9-.57-.74-1.19a1.14,1.14,0,0,1,1.5-.67c.69.18,1.24.65,1,1.41l-.7-.19c.08-.4-.18-.58-.52-.67s-.52,0-.6.24.08.33.85.77c.23.12.92.47.72,1.21s-.75.93-1.65.69c-.73-.19-1.32-.73-1.09-1.54Z"/><path class="cls-7" d="M73.38,98.52l.74.09L74,99.91l1.38.18.16-1.3.74.09-.42,3.38-.75-.09.19-1.46-1.38-.17L73.69,102l-.74-.09Z"/><path class="cls-7" d="M81.48,101.09a1.27,1.27,0,0,1-1.43,1.39c-.92,0-1.46-.42-1.47-1.34l0-2.12.75,0,0,2.13c0,.37.11.73.72.72s.7-.24.7-.75l0-2.11.75,0Z"/><path class="cls-7" d="M84.69,98.65l.76-.12,1.76,3.2-.77.11-.37-.71-1.26.18-.15.79-.75.11Zm.23,2.08.88-.13-.61-1.17h0Z"/><path class="cls-7" d="M88.69,97.87l.73-.19.87,3.3-.73.19Z"/><path class="cls-7" d="M92.65,96.64l.71-.27,2.42,2.72-.73.28-.51-.62-1.19.47,0,.8-.7.27Zm.68,2,.83-.31-.85-1h0Z"/><path class="cls-8" d="M50.3,50.9l.54-.46.74-.55.82-.18,1.05-.91.92-.28.54-.36.78-1.06,1.05-.63.74-.69.71-.65.38-.6.42-.44.61-.63.42-.58.23-.45a5.84,5.84,0,0,1,.52-.43c.17-.08.26-.34.37-.32s.33.27.33.27l1.15.85.45.38.39.37.44.28.33.1.55.19.28.27.38.29.44.56.72.85.22-.47-.55-.56-.94-.75-.5-.67.11-.46.28-.19.88.19.33-.19h.5l.27-.19.22-.75.67-.67.22-.19.16-.19.44-.27.33-.28.34-.29.49-.75.17.19.45-.19.61-.8.83-.36.76-.06.71.13.72-.16.54,0,.4-.07.22-.16.26-.43.4-.32.33-.19.5-.09.16-.19.55.37.22.19.39.38.23.57.55.37,1.21.66.61.85L81,39.6l-.72-.66-1-.67-.38-.75v-.65l.28-.38.22-.19.32-.19.34-.28.22-.47.17-.28.27-.28.5-.37s.38-1,.61-1,.85.67.85.67.54.5.76.77,1,1,1,1l.16.18.45.38.38.38.5.65.38.57.39.1.66.08.22.19a1,1,0,0,1,.28.39l.61.56.21-.19,1.11.28.16.38s.55,1,.72,1.31.22.48.39.76,0,0,.27.19a6.09,6.09,0,0,1,.72.56c.44.38.55.19.71.29a6,6,0,0,0,.89.28c.33.09.27.19.72.28A1,1,0,0,1,95,44a1.26,1.26,0,0,0,.44.29l.66.75a4.35,4.35,0,0,1,.44.75l.83.75.61.28L100.42,49l.71.56.78.09h.55l.49.19.45.47.38.19.94-.19-.55-.18-.61-.29-.44-.19-.5-.28-1.05-.18-.5-.38h-.38l-.5-.38-.89-.88-.15-.15-.28-.28,4.53-.19.33.47.66.28.44.38v.28l.82.56.45.47h.5l.71.1.38.37.17.19a2.3,2.3,0,0,1,.55.06,1,1,0,0,1,.32.32l1.22.64.85.73a32.74,32.74,0,0,0-62.51,0l1.14-.52Z"/></svg>