<svg id="Capa_1" data-name="Capa 1" xmlns="http://www.w3.org/2000/svg" viewBox="0 0 157 121"><defs><style>.cls-1{stroke:#000;}.cls-1,.cls-2,.cls-3,.cls-4,.cls-5{stroke-miterlimit:10;stroke-width:0.2px;}.cls-2{fill:#fff;stroke:#fff;}.cls-3{fill:#1988b9;}.cls-3,.cls-4,.cls-5{stroke:#999;}.cls-4{fill:#1277b0;}.cls-5{fill:#7ba5c7;}</style></defs><path class="cls-1" d="M40.94,89.13a10.53,10.53,0,0,1,.67,1.8A12.7,12.7,0,0,1,42,92.78a15.46,15.46,0,0,1-2.91.79,20,20,0,0,1-2.79.2,11.8,11.8,0,0,1-4.66-.83,9.31,9.31,0,0,1-3.36-2.39,10.11,10.11,0,0,1-2.07-3.65,15.37,15.37,0,0,1-.71-4.62,14.32,14.32,0,0,1,.71-4.64,10.67,10.67,0,0,1,2-3.72,9.2,9.2,0,0,1,3.34-2.44,11,11,0,0,1,4.49-.91,18.33,18.33,0,0,1,2.77.18,11.41,11.41,0,0,1,2.74.77,7.62,7.62,0,0,1-.37,1.83c-.2.58-.43,1.18-.68,1.79a13.11,13.11,0,0,0-1.93-.52,10.3,10.3,0,0,0-2-.14,5.64,5.64,0,0,0-4.65,2,8.94,8.94,0,0,0-1.53,5.75q0,7.62,6.53,7.58a11.46,11.46,0,0,0,2-.16A13,13,0,0,0,40.94,89.13Z"/><path class="cls-1" d="M52.17,82.71a2.53,2.53,0,0,0-.25-1.21,2,2,0,0,0-.69-.74,2.73,2.73,0,0,0-1.08-.34,9.73,9.73,0,0,0-1.43-.1,10.72,10.72,0,0,0-3.58.68,8.62,8.62,0,0,1-.66-1.53,6,6,0,0,1-.23-1.74,17,17,0,0,1,5.3-.93,7.56,7.56,0,0,1,5.08,1.53,6.23,6.23,0,0,1,1.85,5l.05,9.36a25.79,25.79,0,0,1-2.66.66,17.25,17.25,0,0,1-3.51.33,13,13,0,0,1-2.92-.27,6.1,6.1,0,0,1-2.29-.92,4.27,4.27,0,0,1-1.42-1.65,5.62,5.62,0,0,1-.52-2.52,4.63,4.63,0,0,1,.62-2.52,5,5,0,0,1,1.59-1.58,7.39,7.39,0,0,1,2.27-.88A11.56,11.56,0,0,1,50.18,83a13.73,13.73,0,0,1,2,.08Zm0,3.21-.81-.1a5.21,5.21,0,0,0-.79,0,4.7,4.7,0,0,0-2.41.56,2.26,2.26,0,0,0-.57,3,2.06,2.06,0,0,0,.84.65,3.53,3.53,0,0,0,1,.24h1a5.09,5.09,0,0,0,.95-.09l.8-.14Z"/><path class="cls-1" d="M59.91,80.52h-2l-.16-.62,5.8-7.46h.72l0,4.71H68a7.74,7.74,0,0,1,.14.84V79.6a5.68,5.68,0,0,1-.13.91l-3.77,0,0,6.33a6.23,6.23,0,0,0,.16,1.55,2.3,2.3,0,0,0,.46.94,1.38,1.38,0,0,0,.74.46,3.55,3.55,0,0,0,1,.12,4.84,4.84,0,0,0,.92-.08l.76-.17A6.41,6.41,0,0,1,68.69,91a8.77,8.77,0,0,1,.1,1.15v1a12.92,12.92,0,0,1-3,.37,6.34,6.34,0,0,1-4.34-1.28A5.49,5.49,0,0,1,60,87.92Z"/><path class="cls-1" d="M74,86.5a3.43,3.43,0,0,0,1.31,2.7,5.08,5.08,0,0,0,3.13.83,12.2,12.2,0,0,0,4.27-.8,8.1,8.1,0,0,1,.6,1.5,7.92,7.92,0,0,1,.29,1.87,15.07,15.07,0,0,1-5.48,1,10.76,10.76,0,0,1-3.9-.6,6.64,6.64,0,0,1-4.13-4.35,12.07,12.07,0,0,1,0-6.67,7.84,7.84,0,0,1,1.48-2.72A6.81,6.81,0,0,1,74,77.38a7.83,7.83,0,0,1,3.37-.69,7,7,0,0,1,3,.58,6.48,6.48,0,0,1,2.26,1.57,6.8,6.8,0,0,1,1.4,2.45,9.43,9.43,0,0,1,.49,3,11.41,11.41,0,0,1,0,1.17c0,.31-.05.61-.1.92Zm6.32-3.12A4,4,0,0,0,79.51,81a2.6,2.6,0,0,0-2.1-.91,3.06,3.06,0,0,0-2.37.88,4.16,4.16,0,0,0-1,2.47Z"/><path class="cls-1" d="M96.7,70.29a8.06,8.06,0,0,1,1.1-.13H100a8.64,8.64,0,0,1,1.13.11l.11,22.28a21.81,21.81,0,0,1-3,.69,24.92,24.92,0,0,1-3.66.25,11.07,11.07,0,0,1-3.18-.41,7.26,7.26,0,0,1-2.6-1.42A6.76,6.76,0,0,1,87,89.07a9.72,9.72,0,0,1-.76-3.76A9.56,9.56,0,0,1,86.76,82,7.7,7.7,0,0,1,91,77.37a8.42,8.42,0,0,1,3.39-.68h1.17a6.61,6.61,0,0,1,1.18.2Zm0,10a7.18,7.18,0,0,0-1-.19,6.3,6.3,0,0,0-1,0,3.78,3.78,0,0,0-1.8.42,3.92,3.92,0,0,0-1.29,1.14,4.56,4.56,0,0,0-.72,1.66,8.5,8.5,0,0,0-.2,2,6.11,6.11,0,0,0,.34,2.16,3.57,3.57,0,0,0,.86,1.42,3.06,3.06,0,0,0,1.3.76,5.33,5.33,0,0,0,1.64.23,6.15,6.15,0,0,0,1,0,4.65,4.65,0,0,0,1-.2Z"/><path class="cls-1" d="M104.47,76.93a6.61,6.61,0,0,1,.89-.15h.92a6.91,6.91,0,0,1,.91,0,2.74,2.74,0,0,1,.9.15,2.54,2.54,0,0,1,.17.46,4.15,4.15,0,0,0,.14.62c0,.22.08.44.11.66s.07.4.08.54a8.65,8.65,0,0,1,1.68-1.74,4.06,4.06,0,0,1,2.5-.78h.71a4.11,4.11,0,0,1,.6.08,2.12,2.12,0,0,0,.09.72,2.62,2.62,0,0,1,0,.84v1.16a9.47,9.47,0,0,1-.17,1.19,4.82,4.82,0,0,0-.76,0h-.51a6.64,6.64,0,0,0-1.18.11,2.76,2.76,0,0,0-1.3.59,3.5,3.5,0,0,0-1,1.4,7.19,7.19,0,0,0-.37,2.6l0,7.68a10.83,10.83,0,0,1-1.13.12h-2.17a3.8,3.8,0,0,1-1.14-.11Z"/><path class="cls-1" d="M123.84,82.36a2.58,2.58,0,0,0-.26-1.22,1.8,1.8,0,0,0-.69-.73,2.75,2.75,0,0,0-1.08-.35,9.69,9.69,0,0,0-1.42-.1,11.19,11.19,0,0,0-3.58.68,8.52,8.52,0,0,1-.66-1.52,6,6,0,0,1-.23-1.74,16.2,16.2,0,0,1,2.74-.7,16,16,0,0,1,2.59-.24A7.53,7.53,0,0,1,126.32,78a6.22,6.22,0,0,1,1.85,5l.05,9.37c-.73.22-1.61.45-2.59.66a18.9,18.9,0,0,1-3.52.33,14.3,14.3,0,0,1-2.92-.27,6.26,6.26,0,0,1-2.29-.93,4.42,4.42,0,0,1-1.47-1.68,5.68,5.68,0,0,1-.52-2.51,4.55,4.55,0,0,1,.63-2.52,4.85,4.85,0,0,1,1.54-1.55,7.24,7.24,0,0,1,2.27-.88,11.6,11.6,0,0,1,2.49-.29,17.49,17.49,0,0,1,2,.08Zm0,3.2-.8-.1a6.91,6.91,0,0,0-.79,0,4.58,4.58,0,0,0-2.41.55,2.3,2.3,0,0,0-.53,3,2,2,0,0,0,.83.64,3.6,3.6,0,0,0,1,.24h1a5.88,5.88,0,0,0,.93-.1l.8-.13Z"/><path class="cls-1" d="M131,70.12a14.62,14.62,0,0,1,2.19-.2,14.45,14.45,0,0,1,2.18.17l.08,16.39a9.12,9.12,0,0,0,.13,1.56,2.24,2.24,0,0,0,.34.92,1.2,1.2,0,0,0,.61.45,3,3,0,0,0,.94.12H138a5.4,5.4,0,0,0,.58-.09,9.46,9.46,0,0,1,.35,2.48v.46a2.26,2.26,0,0,1,0,.45,5.5,5.5,0,0,1-1.21.23H136.4a5.52,5.52,0,0,1-3.9-1.28A5.63,5.63,0,0,1,131,87.47Z"/><path class="cls-2" d="M45.4,100.85h1l2.8,8.25h-.86l-.71-2.1h-3.4l-.65,2.11h-.85Zm2,5.41-1.52-4.6-1.43,4.61Z"/><path class="cls-2" d="M50.91,100.62h.77l0,7.11a1.37,1.37,0,0,0,.07.45.58.58,0,0,0,.18.25.62.62,0,0,0,.22.1h.73a1.49,1.49,0,0,1,.09.3v.29a1.36,1.36,0,0,1-.36.1h-.36a4.17,4.17,0,0,1-.5,0,1,1,0,0,1-.42-.2,1,1,0,0,1-.32-.39,1.82,1.82,0,0,1-.12-.65Z"/><path class="cls-2" d="M55,103.85H54v-.65h1v-1.1l.71-.71h0v1.81h1.59v.65H55.74l0,3.82a1,1,0,0,0,.08.45.63.63,0,0,0,.2.26.61.61,0,0,0,.27.12,1.13,1.13,0,0,0,.32,0,2,2,0,0,0,.7-.1,3.5,3.5,0,0,1,.12.63,3.1,3.1,0,0,1-1,.14,1.63,1.63,0,0,1-1.08-.35,1.45,1.45,0,0,1-.4-1.14Z"/><path class="cls-2" d="M62.44,105.16a1.45,1.45,0,0,0-.37-1.11,1.4,1.4,0,0,0-1-.35,3.75,3.75,0,0,0-1.52.16,1.23,1.23,0,0,1-.14-.25,2.41,2.41,0,0,1,0-.38l.74-.16a6.61,6.61,0,0,1,.89,0,2.4,2.4,0,0,1,1.66.48,2,2,0,0,1,.61,1.49l0,3.89-1,.16a8.11,8.11,0,0,1-1.09.08,2.84,2.84,0,0,1-1.69-.41,1.53,1.53,0,0,1-.63-1.38,1.73,1.73,0,0,1,.18-.83,1.79,1.79,0,0,1,.49-.61,2.07,2.07,0,0,1,.76-.37,3.16,3.16,0,0,1,1-.13h1.21Zm0,1-.48,0h-.56a2.47,2.47,0,0,0-1.3.33,1.22,1.22,0,0,0-.31,1.53,1,1,0,0,0,.37.35,1.5,1.5,0,0,0,.51.15,2.53,2.53,0,0,0,.55,0c.22,0,.45,0,.67,0l.61-.1Z"/><path class="cls-2" d="M69.27,100.73H71a4.2,4.2,0,0,1,1.22.14,2.58,2.58,0,0,1,1,.42,2.1,2.1,0,0,1,.62.77,2.88,2.88,0,0,1,.22,1.16,2.67,2.67,0,0,1-.24,1.3,2.19,2.19,0,0,1-.67.84,2.46,2.46,0,0,1-1,.48A4.57,4.57,0,0,1,71,106h-.91v3.24h-.79Zm.81,4.28h.85a3.66,3.66,0,0,0,.81,0,2.08,2.08,0,0,0,.74-.29,1.53,1.53,0,0,0,.53-.6,2.28,2.28,0,0,0,.19-1,2,2,0,0,0-.16-.84,1.37,1.37,0,0,0-.44-.54,1.86,1.86,0,0,0-.71-.3,4,4,0,0,0-.92-.08h-.91Z"/><path class="cls-2" d="M79.09,105.08a1.56,1.56,0,0,0-.36-1.12,1.48,1.48,0,0,0-1.07-.34,5.17,5.17,0,0,0-1.51.23.86.86,0,0,1-.09-.3,1.61,1.61,0,0,1,0-.38l.73-.16a6.61,6.61,0,0,1,.89,0,2.44,2.44,0,0,1,1.67.48,2,2,0,0,1,.55,1.53l0,3.89-1,.16a7.88,7.88,0,0,1-1.09.09,2.91,2.91,0,0,1-1.68-.42,1.57,1.57,0,0,1-.62-1.37,1.74,1.74,0,0,1,.18-.84,1.91,1.91,0,0,1,.49-.61,2.08,2.08,0,0,1,.75-.36,3.16,3.16,0,0,1,1-.14h1.21Zm0,1h-1a2.36,2.36,0,0,0-1.29.34,1,1,0,0,0-.48.92,1.2,1.2,0,0,0,.15.61,1.07,1.07,0,0,0,.38.35,1.8,1.8,0,0,0,.5.15,2.62,2.62,0,0,0,.56,0,4.85,4.85,0,0,0,.66,0l.61-.09Z"/><path class="cls-2" d="M82.6,103.71h-1v-.65h1V102l.71-.7h0v1.8H84.9v.65H83.35l0,3.81a1,1,0,0,0,.08.45.51.51,0,0,0,.19.26.53.53,0,0,0,.29.12,1.61,1.61,0,0,0,.31,0,2.38,2.38,0,0,0,.7-.11c0,.21.09.42.12.64a3.2,3.2,0,0,1-1,.13,1.59,1.59,0,0,1-1.07-.35,1.41,1.41,0,0,1-.41-1.14Z"/><path class="cls-2" d="M90.05,105a1.5,1.5,0,0,0-.37-1.11,1.44,1.44,0,0,0-1.05-.35,4.83,4.83,0,0,0-.85,0,4.07,4.07,0,0,0-.67.16,1.82,1.82,0,0,1-.11-.3,2.41,2.41,0,0,1,0-.38l.74-.16a6.76,6.76,0,0,1,.9,0,2.42,2.42,0,0,1,1.66.48,2,2,0,0,1,.54,1.53l0,3.89-1,.16a8,8,0,0,1-1.09.09,2.92,2.92,0,0,1-1.69-.42,1.55,1.55,0,0,1-.63-1.37,1.83,1.83,0,0,1,.18-.83,1.73,1.73,0,0,1,.49-.62,2.05,2.05,0,0,1,.76-.36,3.21,3.21,0,0,1,1-.14h1.21Zm0,1H89a2.44,2.44,0,0,0-1.29.33,1.07,1.07,0,0,0-.47.92,1.25,1.25,0,0,0,.15.61.86.86,0,0,0,.38.35,1.82,1.82,0,0,0,.5.16,3.35,3.35,0,0,0,.55,0,5,5,0,0,0,.67,0l.61-.09Z"/><path class="cls-2" d="M96.33,108.27a2.07,2.07,0,0,1,1.44.43,1.26,1.26,0,0,1,.45,1,1.37,1.37,0,0,1-.23.81,1.87,1.87,0,0,1-.65.63,3.31,3.31,0,0,1-1,.4,4.69,4.69,0,0,1-1.29.15,5,5,0,0,1-1-.07,2.48,2.48,0,0,1-.75-.26,1.35,1.35,0,0,1-.49-.46,1.41,1.41,0,0,1-.18-.73,1.55,1.55,0,0,1,.25-.83,1.63,1.63,0,0,1,.65-.6,1.8,1.8,0,0,1-.37-.36.85.85,0,0,1-.14-.52,1.32,1.32,0,0,1,.2-.75,2.09,2.09,0,0,1,.57-.54,1.93,1.93,0,0,1-.65-.68,2,2,0,0,1-.24-1,2,2,0,0,1,.14-.8,1.59,1.59,0,0,1,.42-.66,2,2,0,0,1,.72-.44,2.42,2.42,0,0,1,1-.17,2.35,2.35,0,0,1,.83.12,2.29,2.29,0,0,1,.65.31l.28-.1.38-.1a.84.84,0,0,0,.43-.08h.42a1.39,1.39,0,0,1,.06.4,1.7,1.7,0,0,1,0,.39H97.19a2.65,2.65,0,0,1,.25.54,2.49,2.49,0,0,1,.08.61,2.14,2.14,0,0,1-.16.87,1.89,1.89,0,0,1-.48.64,2.14,2.14,0,0,1-.71.39,2.57,2.57,0,0,1-.87.15,2.85,2.85,0,0,1-.87-.11,1.3,1.3,0,0,0-.45.39.71.71,0,0,0-.13.43.81.81,0,0,0,0,.22.52.52,0,0,0,.14.19,1.3,1.3,0,0,0,.32.14,2.09,2.09,0,0,0,.5,0ZM94.7,109a1.17,1.17,0,0,0-.87.31,1.1,1.1,0,0,0-.32.83.82.82,0,0,0,.13.46.79.79,0,0,0,.36.29,1.82,1.82,0,0,0,.52.14,4.42,4.42,0,0,0,.63,0,3.13,3.13,0,0,0,1.67-.37,1.05,1.05,0,0,0,.6-.87.71.71,0,0,0-.31-.62,2.2,2.2,0,0,0-1-.19Zm-.86-4a1.48,1.48,0,0,0,.35,1,1.35,1.35,0,0,0,1.11.4,1.41,1.41,0,0,0,1.1-.41,1.62,1.62,0,0,0,0-2,1.43,1.43,0,0,0-1.11-.41,1.38,1.38,0,0,0-1.1.42A1.52,1.52,0,0,0,93.84,104.93Z"/><path class="cls-2" d="M102.2,109a2.48,2.48,0,0,1-1.14-.23,2.19,2.19,0,0,1-.84-.64,3.37,3.37,0,0,1-.5-1,4.84,4.84,0,0,1,0-2.42,3.17,3.17,0,0,1,.49-1,2.14,2.14,0,0,1,.83-.66,2.47,2.47,0,0,1,1.14-.25,2.53,2.53,0,0,1,1.15.24,2.18,2.18,0,0,1,.82.65,3,3,0,0,1,.5,1,4.3,4.3,0,0,1,0,2.41,3.25,3.25,0,0,1-.48,1,2.26,2.26,0,0,1-.82.65A2.53,2.53,0,0,1,102.2,109Zm0-.66a1.54,1.54,0,0,0,1.37-.66,3.53,3.53,0,0,0,0-3.52,1.53,1.53,0,0,0-1.38-.63,1.57,1.57,0,0,0-1.37.64,3.4,3.4,0,0,0,.09,3.53A1.6,1.6,0,0,0,102.2,108.31Z"/><path class="cls-2" d="M107.09,102.94h.7V104a4.15,4.15,0,0,1,.3-.43,2.32,2.32,0,0,1,.44-.38,1.92,1.92,0,0,1,.57-.29,2.06,2.06,0,0,1,.7-.12,1.74,1.74,0,0,1,1.45.57,2.77,2.77,0,0,1,.48,1.7l0,3.69h-.67v-3.43a2.49,2.49,0,0,0-.32-1.41,1,1,0,0,0-.91-.41,1.9,1.9,0,0,0-.77.16,1.52,1.52,0,0,0-.6.47,2,2,0,0,0-.41.75,3.28,3.28,0,0,0-.14,1v2.89h-.75Z"/><path class="cls-2" d="M114.61,103.55h-.76a.38.38,0,0,1,0-.15.48.48,0,0,1,0-.17.54.54,0,0,1,0-.18.76.76,0,0,1,0-.15h1.5l0,5.86h-.76Zm-.4-2.08v-1h1v.22a1,1,0,0,1,0,.24,2.17,2.17,0,0,1,0,.26v.24h-1Z"/><path class="cls-2" d="M121.21,104.87a1.48,1.48,0,0,0-.37-1.12,1.44,1.44,0,0,0-1-.34,3.93,3.93,0,0,0-.84,0,5.17,5.17,0,0,0-.68.16,1,1,0,0,1-.1-.29,1.63,1.63,0,0,1,0-.38l.74-.16a6.76,6.76,0,0,1,.9,0,2.41,2.41,0,0,1,1.66.48,2,2,0,0,1,.54,1.53l0,3.89-1,.16a8,8,0,0,1-1.09.08,2.88,2.88,0,0,1-1.69-.42,1.55,1.55,0,0,1-.63-1.37,2,2,0,0,1,.18-.83,1.81,1.81,0,0,1,.49-.61,2.24,2.24,0,0,1,.76-.37,3.2,3.2,0,0,1,1-.13h1.21Zm0,1h-1.06a2.35,2.35,0,0,0-1.29.33,1,1,0,0,0-.46.92,1.19,1.19,0,0,0,.14.61.92.92,0,0,0,.38.35,1.5,1.5,0,0,0,.51.15,2.53,2.53,0,0,0,.55,0,5,5,0,0,0,.67,0l.61-.09Z"/><path class="cls-2" d="M122.39,31.16v-.09c-.87-7.5-6-10.88-10.37-10.86a8.08,8.08,0,0,0-3.61.85l-3.2,1.62-.18-2v-.09c-.71-6.38-5.16-9.28-9-9.26a7,7,0,0,0-3.17.76L82.36,17.42,71.78,12.17a7.24,7.24,0,0,0-3.2-.72c-3.79,0-8.18,3-8.85,9.34l-.21,2.6-4.11-2.06a8.31,8.31,0,0,0-3.64-.81c-4.37,0-9.45,3.46-10.26,11l-1,13.25v.19c-.21,8.61,7.59,18.69,21,20.65a18.82,18.82,0,0,0,2.7.35l35.88-.18a18.73,18.73,0,0,0,2.69-.38c13.39-2.12,21.08-12.28,20.81-20.86Z"/><path class="cls-3" d="M58.6,46.42,78.36,36.36,54,24.23c-3.16-1.56-8.47.62-9.21,7.57L43.72,45c-.12,5,3.21,10.87,9.48,14.44C51.1,54.59,54.21,48.65,58.6,46.42Z"/><path class="cls-4" d="M119.15,31.44,120.3,44.6c.26,7.65-7.53,17.43-21.72,17.94l-34.23.17c-3.7-.22-6.64-1.46-8.08-4.29-1.6-3.14.65-7.49,3.84-9.1L109.86,24C113,22.36,118.35,24.49,119.15,31.44Z"/><path class="cls-5" d="M82,34.53l20.12-10.28-.33-3.3c-.65-5.56-4.92-7.27-7.44-6L68.82,28l3.76,1.88Z"/></svg>